<svg width="190" height="2" viewBox="0 0 190 2" fill="none" xmlns="http://www.w3.org/2000/svg">
<path d="M319 1.50003C319.276 1.50003 319.5 1.27617 319.5 1.00003C319.5 0.723886 319.276 0.500028 319 0.500028L319 1.50003ZM0 1L-4.37114e-08 1.5L3.76597 1.5L3.76597 1L3.76597 0.5L4.37114e-08 0.5L0 1ZM11.2979 1L11.2979 1.5L15.0639 1.5L15.0639 1L15.0639 0.500001L11.2979 0.500001L11.2979 1ZM15.0639 1L15.0639 1.5L18.8299 1.5L18.8299 1L18.8299 0.500002L15.0639 0.500001L15.0639 1ZM26.3618 1L26.3618 1.5L30.1278 1.5L30.1278 1L30.1278 0.500003L26.3618 0.500002L26.3618 1ZM30.1278 1L30.1278 1.5L34.8906 1.5L34.8906 1L34.8906 0.500003L30.1278 0.500003L30.1278 1ZM44.4163 1L44.4163 1.5L53.942 1.5L53.942 1L53.942 0.500005L44.4163 0.500004L44.4163 1ZM63.4677 1.00001L63.4677 1.50001L72.9934 1.50001L72.9934 1.00001L72.9934 0.500006L63.4677 0.500006L63.4677 1.00001ZM82.5191 1.00001L82.5191 1.50001L92.0448 1.50001L92.0448 1.00001L92.0448 0.500008L82.5191 0.500007L82.5191 1.00001ZM101.57 1.00001L101.57 1.50001L106.333 1.50001L106.333 1.00001L106.333 0.500009L101.57 0.500009L101.57 1.00001ZM106.333 1.00001L106.333 1.50001L111.798 1.50001L111.798 1.00001L111.798 0.50001L106.333 0.500009L106.333 1.00001ZM122.726 1.00001L122.726 1.50001L133.655 1.50001L133.655 1.00001L133.655 0.500012L122.726 0.500011L122.726 1.00001ZM144.584 1.00001L144.584 1.50001L155.513 1.50001L155.513 1.00001L155.513 0.500014L144.584 0.500013L144.584 1.00001ZM166.441 1.00001L166.441 1.50001L171.906 1.50002L171.906 1.00002L171.906 0.500015L166.441 0.500015L166.441 1.00001ZM171.906 1.00002L171.906 1.50002L176.447 1.50002L176.447 1.00002L176.447 0.500015L171.906 0.500015L171.906 1.00002ZM185.53 1.00002L185.53 1.50002L194.612 1.50002L194.612 1.00002L194.612 0.500017L185.53 0.500016L185.53 1.00002ZM203.695 1.00002L203.695 1.50002L212.777 1.50002L212.777 1.00002L212.777 0.500019L203.695 0.500018L203.695 1.00002ZM221.86 1.00002L221.86 1.50002L230.943 1.50002L230.943 1.00002L230.943 0.50002L221.86 0.500019L221.86 1.00002ZM240.025 1.00002L240.025 1.50002L244.567 1.50002L244.567 1.00002L244.567 0.500021L240.025 0.500021L240.025 1.00002ZM244.567 1.00002L244.567 1.50002L249.108 1.50002L249.108 1.00002L249.108 0.500022L244.567 0.500021L244.567 1.00002ZM258.191 1.00002L258.191 1.50002L267.273 1.50002L267.273 1.00002L267.273 0.500023L258.191 0.500023L258.191 1.00002ZM276.356 1.00002L276.356 1.50002L285.439 1.50002L285.439 1.00002L285.439 0.500025L276.356 0.500024L276.356 1.00002ZM294.521 1.00003L294.521 1.50003L303.604 1.50003L303.604 1.00003L303.604 0.500027L294.521 0.500026L294.521 1.00003ZM312.686 1.00003L312.686 1.50003L317.228 1.50003L317.228 1.00003L317.228 0.500028L312.686 0.500027L312.686 1.00003ZM317.228 1.00003L317.228 1.50003L317.671 1.50003L317.671 1.00003L317.671 0.500028L317.228 0.500028L317.228 1.00003ZM318.557 1.00003L318.557 1.50003L319 1.50003L319 1.00003L319 0.500028L318.557 0.500028L318.557 1.00003Z" fill="url(#paint0_linear_351_2703)"/>
<defs>
<linearGradient id="paint0_linear_351_2703" x1="-4.37114e-08" y1="1.5" x2="319" y2="1.50003" gradientUnits="userSpaceOnUse">
<stop stop-color="#9F82FF"/>
<stop offset="1" stop-color="#EEB4FB"/>
</linearGradient>
</defs>
</svg>
