<svg width="25" height="25" viewBox="0 0 25 25" fill="none" xmlns="http://www.w3.org/2000/svg">
<path d="M2.16547 8.73242H18.1655M2.16547 8.73242L2.16547 17.5326C2.16547 18.6527 2.16547 19.2125 2.38345 19.6403C2.5752 20.0166 2.88094 20.3229 3.25726 20.5146C3.68467 20.7324 4.24446 20.7324 5.36238 20.7324H14.9686C16.0865 20.7324 16.6455 20.7324 17.0729 20.5146C17.4492 20.3229 17.7559 20.0166 17.9477 19.6403C18.1655 19.2129 18.1655 18.6539 18.1655 17.536V8.73242M2.16547 8.73242V7.93262C2.16547 6.81251 2.16547 6.25204 2.38345 5.82422C2.5752 5.44789 2.88094 5.14216 3.25726 4.95041C3.68509 4.73242 4.24556 4.73242 5.36566 4.73242H6.16547M18.1655 8.73242V7.92933C18.1655 6.81142 18.1655 6.25162 17.9477 5.82422C17.7559 5.44789 17.4492 5.14216 17.0729 4.95041C16.645 4.73242 16.0858 4.73242 14.9657 4.73242H14.1655M6.16547 4.73242H14.1655M6.16547 4.73242V2.73242M14.1655 4.73242V2.73242M9.91547 16.7324C10.0535 16.7324 10.1655 16.6205 10.1655 16.4824V12.9824C10.1655 12.8444 10.0535 12.7324 9.91547 12.7324H6.41547C6.2774 12.7324 6.16547 12.8444 6.16547 12.9824V16.4824C6.16547 16.6205 6.2774 16.7324 6.41547 16.7324H9.91547Z" stroke="white" stroke-width="2" stroke-linecap="round" stroke-linejoin="round"/>
</svg>
