<svg width="33" height="32" viewBox="0 0 33 32" fill="none" xmlns="http://www.w3.org/2000/svg">
<path fill-rule="evenodd" clip-rule="evenodd" d="M9.21841 6.66699C9.29841 7.85366 9.49841 9.01366 9.81841 10.1203L8.21841 11.7203C7.67174 10.1203 7.32508 8.42699 7.20508 6.66699H9.21841ZM22.3652 22.6934C23.4985 23.0134 24.6585 23.2134 25.8319 23.2934V25.2801C24.0719 25.1601 22.3785 24.8134 20.7652 24.2801L22.3652 22.6934ZM10.4985 4H5.83187C5.09854 4 4.49854 4.6 4.49854 5.33333C4.49854 17.8533 14.6452 28 27.1652 28C27.8985 28 28.4985 27.4 28.4985 26.6667V22.0133C28.4985 21.28 27.8985 20.68 27.1652 20.68C25.5119 20.68 23.8985 20.4133 22.4052 19.92C22.2719 19.8667 22.1252 19.8533 21.9919 19.8533C21.6452 19.8533 21.3119 19.9867 21.0452 20.24L18.1119 23.1733C14.3385 21.24 11.2452 18.16 9.3252 14.3867L12.2585 11.4533C12.6319 11.08 12.7385 10.56 12.5919 10.0933C12.0985 8.6 11.8319 7 11.8319 5.33333C11.8319 4.6 11.2319 4 10.4985 4Z" fill="white"/>
</svg>
