<svg width="30" height="30" viewBox="0 0 30 30" fill="none" xmlns="http://www.w3.org/2000/svg">
<g clip-path="url(#clip0_355_1002)">
<path d="M15 3C21.767 3 27 8.18946 27 14.2861C26.9998 20.3826 21.7669 25.5713 15 25.5713C8.23312 25.5713 3.00024 20.3826 3 14.2861C3 8.18945 8.23297 3 15 3Z" fill="url(#paint0_linear_355_1002)" style="mix-blend-mode:overlay"/>
<path d="M15 3C21.767 3 27 8.18946 27 14.2861C26.9998 20.3826 21.7669 25.5713 15 25.5713C8.23312 25.5713 3.00024 20.3826 3 14.2861C3 8.18945 8.23297 3 15 3Z" stroke="url(#paint1_linear_355_1002)" stroke-width="6"/>
<path d="M15 28.125C11.519 28.125 8.18064 26.7422 5.71922 24.2808C3.25781 21.8194 1.875 18.481 1.875 15C1.875 11.519 3.25781 8.18064 5.71922 5.71922C8.18064 3.25781 11.519 1.875 15 1.875C18.481 1.875 21.8194 3.25781 24.2808 5.71922C26.7422 8.18064 28.125 11.519 28.125 15C28.125 18.481 26.7422 21.8194 24.2808 24.2808C21.8194 26.7422 18.481 28.125 15 28.125ZM15 30C18.9782 30 22.7936 28.4196 25.6066 25.6066C28.4196 22.7936 30 18.9782 30 15C30 11.0218 28.4196 7.20644 25.6066 4.3934C22.7936 1.58035 18.9782 0 15 0C11.0218 0 7.20644 1.58035 4.3934 4.3934C1.58035 7.20644 0 11.0218 0 15C0 18.9782 1.58035 22.7936 4.3934 25.6066C7.20644 28.4196 11.0218 30 15 30Z" fill="white"/>
<circle cx="15" cy="15" r="10" fill="#9D668F"/>
<path d="M12.1197 22V7.72H15.8797C17.6264 7.72 18.9197 8.07333 19.7597 8.78C20.613 9.48667 21.0397 10.5133 21.0397 11.86C21.0397 12.7667 20.833 13.5467 20.4197 14.2C20.0064 14.84 19.393 15.3333 18.5797 15.68C17.7797 16.0267 16.7864 16.2 15.5997 16.2H13.9197V22H12.1197ZM10.3797 19.28V17.98H17.2197V19.28H10.3797ZM10.3797 16.2V14.68H14.9597V16.2H10.3797ZM15.3397 14.68C16.153 14.68 16.8397 14.5933 17.3997 14.42C17.973 14.2467 18.413 13.96 18.7197 13.56C19.0264 13.16 19.1797 12.6133 19.1797 11.92C19.1797 11.0133 18.8997 10.34 18.3397 9.9C17.7797 9.46 16.9064 9.24 15.7197 9.24H13.9197V14.68H15.3397Z" fill="white"/>
</g>
<defs>
<linearGradient id="paint0_linear_355_1002" x1="1.61538" y1="4.43467" x2="11.167" y2="26.252" gradientUnits="userSpaceOnUse">
<stop stop-color="white" stop-opacity="0.5"/>
<stop offset="0.352567" stop-color="white" stop-opacity="0"/>
<stop offset="0.646925" stop-color="white" stop-opacity="0"/>
<stop offset="1" stop-color="white" stop-opacity="0.54"/>
</linearGradient>
<linearGradient id="paint1_linear_355_1002" x1="5.66038" y1="3.77359" x2="31.7348" y2="26.5888" gradientUnits="userSpaceOnUse">
<stop stop-color="#FAA287"/>
<stop offset="1" stop-color="#F387FF" stop-opacity="0"/>
</linearGradient>
<clipPath id="clip0_355_1002">
<rect width="30" height="30" fill="white"/>
</clipPath>
</defs>
</svg>
