<svg width="49" height="49" viewBox="0 0 49 49" fill="none" xmlns="http://www.w3.org/2000/svg">
<rect x="12" y="16" width="26" height="22" fill="white"/>
<path d="M44.4122 29.2847C43.249 34.4599 40.0776 38.9611 35.5957 41.798C31.1138 44.635 25.6885 45.5753 20.5132 44.4122C15.338 43.249 10.8368 40.0776 7.99986 35.5957C5.1629 31.1138 4.22258 25.6884 5.38575 20.5132C6.54892 15.338 9.7203 10.8368 14.2022 7.99984C18.6841 5.16289 24.1095 4.22256 29.2847 5.38573C34.4599 6.5489 38.9611 9.72028 41.7981 14.2022C44.635 18.6841 45.5753 24.1095 44.4122 29.2847ZM26.747 19.9487C24.6701 20.3121 20.5091 21.0937 14.264 22.2934C13.2597 22.4521 12.6952 22.7027 12.5704 23.0453C12.364 23.6216 13.0553 24.023 13.9957 24.57L14.3924 24.8001C15.3147 25.3482 16.5712 26.0278 17.2631 26.1986C17.8936 26.3574 18.6578 26.2559 19.5557 25.894C25.6777 23.5015 28.8284 22.305 29.0079 22.3043C29.1365 22.3025 29.3149 22.3067 29.4041 22.4344C29.4932 22.562 29.4407 22.7501 29.417 22.7986C29.2731 23.0968 25.7438 25.1529 23.9182 26.2185C23.3488 26.5517 22.945 26.7864 22.8608 26.8418C22.6759 26.9617 22.489 27.0786 22.3003 27.1924C21.1728 27.8768 20.3298 28.3895 21.7404 29.8544C22.4196 30.5606 22.9616 31.1359 23.5007 31.7132C24.087 32.3421 24.6739 32.9685 25.4389 33.7605C25.6329 33.9613 25.8183 34.1627 25.9949 34.3647C26.6729 35.1218 27.286 35.8028 28.1998 35.921C28.7327 35.9896 29.3814 35.6229 29.9836 34.2208C31.4068 30.9098 34.36 23.7097 35.3462 20.6899C35.4223 20.4376 35.4696 20.1775 35.4872 19.9145C35.5096 19.7043 35.4529 19.4933 35.3281 19.3227C35.1402 19.1201 34.8936 18.9814 34.6229 18.9259C33.8885 18.7736 32.6709 18.9125 26.747 19.9487Z" fill="#00A2FF"/>
</svg>
