<svg width="249" height="58" viewBox="0 0 249 58" fill="none" xmlns="http://www.w3.org/2000/svg">
<path d="M72.7781 11.9121C72.7755 11.9121 72.7755 11.9121 72.7755 11.9121C69.1697 11.9121 66.2378 14.9894 66.2378 18.7679C66.2378 22.5463 69.1697 25.6236 72.7755 25.6236C76.3787 25.6236 79.3132 22.5463 79.3132 18.7679C79.3132 14.9894 76.3787 11.9148 72.7781 11.9121ZM72.7755 23.2017C70.4428 23.2017 68.5448 21.2113 68.5448 18.7679C68.5448 16.3244 70.4402 14.334 72.7755 14.334C75.1056 14.334 77.0036 16.3244 77.0036 18.7679C77.0036 21.2113 75.1056 23.2017 72.7755 23.2017ZM90.2308 12.2708H82.582C81.9468 12.2708 81.4298 12.8129 81.4298 13.4818V24.0081C81.4298 24.6743 81.9468 25.2164 82.582 25.2164C83.2173 25.2164 83.7368 24.6743 83.7368 24.0081V14.69H89.0786V24.0081C89.0786 24.6743 89.5981 25.2164 90.2308 25.2164C90.8686 25.2164 91.3881 24.6743 91.3881 24.0081V13.4818C91.3881 12.8129 90.8686 12.2708 90.2308 12.2708ZM102.583 12.2277H94.1606C93.5228 12.2277 93.0084 12.7698 93.0084 13.4359C93.0084 14.1048 93.5228 14.6496 94.1606 14.6496H97.2185V23.965C97.2185 24.6311 97.7355 25.1759 98.3733 25.1759C99.0086 25.1759 99.5281 24.6311 99.5281 23.965V14.6496H102.583C103.221 14.6496 103.738 14.1048 103.738 13.4359C103.738 12.7698 103.221 12.2277 102.583 12.2277ZM116.181 13.4818C116.181 13.3038 116.147 13.1231 116.073 12.9612C116.001 12.8048 115.901 12.67 115.78 12.5621C115.78 12.5621 115.78 12.5621 115.777 12.5594C115.777 12.5594 115.777 12.5594 115.775 12.5567H115.772C115.772 12.554 115.772 12.554 115.772 12.554C115.769 12.554 115.769 12.5486 115.767 12.5486C115.746 12.5324 115.728 12.5162 115.708 12.5028C115.517 12.3571 115.283 12.2708 115.029 12.2708C115.003 12.2708 114.975 12.2735 114.949 12.2735C114.949 12.2735 114.949 12.2735 114.946 12.2735C114.946 12.2735 114.946 12.2735 114.944 12.2735C114.81 12.2843 114.682 12.3194 114.558 12.376C114.558 12.376 114.558 12.376 114.556 12.376C114.556 12.3787 114.556 12.3787 114.553 12.3787C114.411 12.4434 114.288 12.5405 114.185 12.6538L114.183 12.6565C114.183 12.6565 114.183 12.6565 114.18 12.6619C114.17 12.6727 114.159 12.6861 114.149 12.6969L114.144 12.705L107.668 20.7097V13.4818C107.668 12.8102 107.151 12.2708 106.513 12.2708C105.875 12.2708 105.361 12.8102 105.361 13.4818V24.0054C105.361 24.0108 105.361 24.0189 105.361 24.0243C105.361 24.0243 105.361 24.027 105.361 24.0297V24.0324C105.361 24.0324 105.361 24.0324 105.361 24.0351C105.364 24.2077 105.402 24.3749 105.474 24.5313C105.531 24.6608 105.613 24.7795 105.711 24.8739C105.729 24.8954 105.747 24.9143 105.767 24.9278C105.819 24.9763 105.873 25.0168 105.929 25.0519C105.935 25.0519 105.935 25.0519 105.935 25.0519C105.935 25.0519 105.935 25.0546 105.937 25.0546H105.94V25.0572C105.942 25.0572 105.945 25.0572 105.945 25.0599C105.989 25.0842 106.03 25.1085 106.076 25.1274C106.079 25.1274 106.084 25.1301 106.084 25.1301C106.086 25.1301 106.086 25.1301 106.086 25.1301L106.089 25.1328C106.091 25.1328 106.091 25.1328 106.091 25.1328C106.094 25.1328 106.094 25.1328 106.094 25.1328C106.097 25.1355 106.097 25.1355 106.099 25.1355C106.2 25.1759 106.302 25.2029 106.408 25.211H106.41H106.413C106.416 25.211 106.416 25.211 106.418 25.211C106.421 25.211 106.423 25.2137 106.426 25.2137C106.454 25.2137 106.485 25.2164 106.513 25.2164C106.68 25.2164 106.845 25.1786 106.997 25.1058C106.997 25.1058 106.999 25.1058 106.999 25.1031C106.999 25.1031 106.999 25.1031 107.002 25.1031C107.143 25.033 107.269 24.9359 107.372 24.8145C107.383 24.8064 107.388 24.7956 107.393 24.7902L107.398 24.7849C107.565 24.5745 107.565 24.5745 107.398 24.7849L113.877 16.7775V24.0054C113.877 24.677 114.393 25.2164 115.029 25.2164C115.667 25.2164 116.183 24.677 116.183 24.0054V13.4818H116.181ZM128.59 23.2395L124.467 17.9749L127.829 14.3205C128.271 13.8405 128.256 13.0718 127.798 12.6106C127.338 12.1467 126.61 12.1575 126.165 12.6403L121.07 18.1853V13.4818C121.07 12.8102 120.553 12.2708 119.915 12.2708C119.277 12.2708 118.763 12.8102 118.763 13.4818V24.0081C118.763 24.677 119.277 25.2164 119.915 25.2164C120.553 25.2164 121.07 24.677 121.07 24.0081V21.6698L122.857 19.728L126.805 24.7768C127.034 25.068 127.363 25.2164 127.698 25.2164C127.955 25.2164 128.217 25.1274 128.431 24.944C128.922 24.5205 128.994 23.7573 128.59 23.2395ZM142.136 23.4525L137.044 12.937C137.046 12.9478 137.052 12.9531 137.054 12.9585C136.977 12.7832 136.859 12.6268 136.704 12.5081L136.702 12.5054C136.666 12.4812 136.635 12.4569 136.596 12.4353C136.586 12.4272 136.573 12.4191 136.563 12.4137C136.555 12.4084 136.542 12.4003 136.532 12.3922C136.517 12.3868 136.499 12.3787 136.483 12.3733C136.468 12.3625 136.455 12.3571 136.437 12.3517C136.398 12.3328 136.362 12.3221 136.321 12.3086C136.314 12.3059 136.306 12.3032 136.296 12.3032C136.26 12.2897 136.218 12.2816 136.18 12.2762C136.167 12.2762 136.154 12.2735 136.141 12.2735C136.105 12.2681 136.067 12.2681 136.033 12.2627C136.023 12.2627 136.015 12.2627 136.01 12.2627C136.005 12.2627 136 12.2627 135.997 12.2627C135.951 12.2627 135.907 12.2681 135.863 12.2735C135.843 12.2762 135.827 12.2789 135.807 12.2843C135.786 12.287 135.763 12.2897 135.74 12.2978C135.714 12.3032 135.689 12.3113 135.663 12.3221C135.65 12.3247 135.64 12.3274 135.629 12.3328C135.539 12.3625 135.457 12.4084 135.383 12.4596C135.367 12.4677 135.354 12.4785 135.339 12.4893C135.321 12.5028 135.305 12.5162 135.287 12.5324C135.267 12.5459 135.249 12.5648 135.231 12.5837C135.218 12.5944 135.208 12.6079 135.195 12.6187C135.133 12.6808 135.076 12.7536 135.033 12.8318C135.025 12.8453 135.02 12.8534 135.015 12.8641C135.002 12.8857 134.992 12.9046 134.981 12.9262L129.881 23.4525C129.493 24.2616 130.056 25.211 130.913 25.211C131.329 25.211 131.738 24.9682 131.941 24.5475L132.749 22.8781H139.269L140.081 24.5475C140.369 25.1462 141.061 25.3836 141.632 25.0788C142.201 24.7768 142.427 24.0486 142.136 23.4525ZM133.922 20.4589L136.01 16.1464L138.101 20.4589H133.922ZM155.047 17.2441H154.473H151.022V14.69H157.007C157.645 14.69 158.159 14.1479 158.159 13.4818C158.159 12.8102 157.645 12.2708 157.007 12.2708H149.867C149.79 12.2708 149.713 12.2789 149.636 12.2951C149.597 12.3032 149.561 12.3113 149.525 12.3247C149.057 12.4785 148.715 12.937 148.715 13.4818V24.0081C148.715 24.5502 149.057 25.0114 149.525 25.1624C149.636 25.2002 149.749 25.2164 149.867 25.2164H155.047C155.086 25.2164 155.127 25.2137 155.165 25.211C157.207 25.1462 158.848 23.3878 158.848 21.2302C158.851 19.0322 157.146 17.2441 155.047 17.2441ZM155.047 22.7972H151.022V19.6633H154.473L155.047 19.6606C155.873 19.6606 156.544 20.3645 156.544 21.2302C156.544 22.0933 155.873 22.7972 155.047 22.7972ZM170.55 12.4785C170.352 12.3409 170.134 12.2762 169.915 12.2762C169.542 12.2762 169.172 12.4704 168.951 12.821L165.638 18.0801L161.965 12.7725C161.739 12.4542 161.389 12.2762 161.029 12.2762C160.793 12.2762 160.559 12.349 160.353 12.5081C159.841 12.8992 159.725 13.6571 160.101 14.1938L164.285 20.2323L162.323 23.342C161.97 23.8975 162.115 24.65 162.644 25.0195C162.842 25.1516 163.061 25.2164 163.282 25.2164C163.655 25.2164 164.018 25.0249 164.244 24.6743L166.602 20.9362C166.613 20.9201 166.628 20.9093 166.638 20.8904L166.651 20.8715C166.656 20.8661 166.656 20.8607 166.662 20.8553L166.667 20.8418C166.662 20.8472 166.659 20.8553 166.656 20.8607L166.651 20.8661C166.641 20.8769 166.636 20.885 166.631 20.8931C166.633 20.8877 166.638 20.8823 166.644 20.8715L166.656 20.8607C166.659 20.8553 166.662 20.8472 166.664 20.8418H166.667L170.877 14.1533C171.229 13.595 171.08 12.8453 170.55 12.4785ZM182.353 22.8133H181.771V13.4737C181.771 13.2498 181.722 13.0448 181.62 12.8615C181.517 12.6754 181.378 12.5297 181.198 12.4164C181.015 12.3059 180.825 12.2519 180.619 12.2519H174.346C174.048 12.2519 173.796 12.3517 173.585 12.5567C173.325 12.7994 173.197 13.0988 173.197 13.4575H173.181C173.181 13.506 173.181 13.5546 173.181 13.6031C173.181 13.649 173.181 13.6921 173.181 13.7245C173.181 13.7595 173.181 13.8054 173.181 13.8647C173.181 14.744 173.179 15.3885 173.174 15.7877C173.171 16.1922 173.156 16.7101 173.135 17.3519C173.112 17.9884 173.078 18.4604 173.042 18.7679C173.006 19.0726 172.952 19.4502 172.883 19.9006C172.816 20.3483 172.726 20.7124 172.621 20.9902C172.515 21.2653 172.384 21.5646 172.232 21.8829C172.08 22.2011 171.903 22.514 171.7 22.8133H171.353C171.041 22.8133 170.769 22.932 170.543 23.1694C170.316 23.4067 170.203 23.6899 170.203 24.0189V26.8534C170.203 27.1825 170.316 27.463 170.543 27.7003C170.769 27.9376 171.041 28.059 171.358 28.059C171.679 28.059 171.952 27.9376 172.176 27.7003C172.402 27.463 172.518 27.1825 172.518 26.8534V25.2379H172.669C172.677 25.2379 172.693 25.2379 172.713 25.2379C172.729 25.2379 181.172 25.2379 181.19 25.2379V26.8534C181.19 27.1825 181.303 27.463 181.53 27.7003C181.756 27.9376 182.028 28.059 182.347 28.059C182.664 28.059 182.936 27.9376 183.163 27.7003C183.389 27.463 183.505 27.1825 183.505 26.8534V24.0189C183.505 23.6899 183.389 23.4067 183.163 23.1694C182.936 22.932 182.669 22.8133 182.353 22.8133ZM174.838 21.6375C174.964 21.2086 175.059 20.8149 175.12 20.4508C175.187 20.0867 175.241 19.639 175.288 19.1023C175.334 18.5629 175.365 18.1179 175.38 17.7646C175.39 17.4113 175.409 16.9042 175.424 16.2381C175.445 15.5746 175.46 15.0541 175.468 14.6792H179.459V22.8133H174.387C174.562 22.4546 174.714 22.0636 174.838 21.6375ZM194.379 12.4785C194.181 12.3409 193.962 12.2762 193.741 12.2762C193.368 12.2762 193 12.4704 192.779 12.821L189.466 18.0801L185.794 12.7725C185.567 12.4542 185.218 12.2762 184.858 12.2762C184.621 12.2762 184.384 12.349 184.181 12.5081C183.669 12.8992 183.554 13.6571 183.929 14.1938L188.114 20.2323L186.151 23.342C185.799 23.8975 185.943 24.65 186.473 25.0195C186.671 25.1516 186.889 25.2164 187.111 25.2164C187.481 25.2164 187.846 25.0249 188.072 24.6743L190.431 20.9362C190.441 20.9201 190.457 20.9093 190.467 20.8904L190.48 20.8715C190.485 20.8661 190.485 20.8607 190.49 20.8553L190.495 20.8418C190.49 20.8472 190.487 20.8553 190.485 20.8607L190.48 20.8661C190.469 20.8769 190.464 20.885 190.459 20.8931C190.462 20.8877 190.467 20.8823 190.472 20.8715L190.485 20.8607C190.487 20.8553 190.49 20.8472 190.493 20.8418H190.495L194.705 14.1533C195.058 13.595 194.908 12.8453 194.379 12.4785ZM213.521 22.8053H211.754V13.4872C211.754 12.821 211.235 12.2789 210.599 12.2789C209.962 12.2789 209.447 12.821 209.447 13.4872V22.8053H205.319V13.4872C205.319 12.821 204.805 12.2789 204.165 12.2789C203.529 12.2789 203.012 12.821 203.012 13.4872V22.8053H198.885V13.4872C198.885 12.821 198.37 12.2789 197.73 12.2789C197.094 12.2789 196.578 12.821 196.578 13.4872V23.9946C196.578 24.0027 196.578 24.0081 196.578 24.0162C196.578 24.6851 197.094 25.2272 197.73 25.2272H212.366V26.8319C212.366 27.5034 212.883 28.0428 213.521 28.0428C214.159 28.0428 214.673 27.5034 214.673 26.8319V24.0162C214.673 23.3474 214.159 22.8053 213.521 22.8053ZM224.174 14.69C224.814 14.69 225.328 14.1479 225.328 13.4818C225.328 12.8102 224.814 12.2708 224.174 12.2708H217.482C217.284 12.2708 217.096 12.3247 216.934 12.4164C216.867 12.4542 216.805 12.4974 216.746 12.5459C216.692 12.5971 216.638 12.6511 216.592 12.7131C216.425 12.9208 216.33 13.1878 216.33 13.4818V24.0054C216.33 24.2994 216.43 24.5691 216.592 24.7768C216.638 24.8361 216.692 24.8927 216.746 24.9413C216.805 24.9898 216.867 25.033 216.934 25.0707C217.096 25.1624 217.284 25.2164 217.482 25.2164H224.174C224.814 25.2164 225.328 24.677 225.328 24.0054C225.328 23.3393 224.814 22.7972 224.174 22.7972H218.636V19.9545H223.194C223.829 19.9545 224.349 19.4124 224.349 18.7436C224.349 18.0774 223.829 17.5353 223.194 17.5353H218.636V14.69H224.174ZM235.709 13.4602C235.709 12.794 235.194 12.2519 234.556 12.2519H228.613C227.975 12.2519 227.461 12.794 227.461 13.4602C227.461 13.4629 227.461 13.4656 227.461 13.471C227.461 13.4737 227.461 13.4791 227.461 13.4818V24.0081C227.461 24.677 227.975 25.2164 228.613 25.2164C229.251 25.2164 229.768 24.677 229.768 24.0081V14.6684H234.556C235.194 14.6684 235.709 14.129 235.709 13.4602ZM242.465 11.9121C242.462 11.9121 242.462 11.9121 242.462 11.9121C238.857 11.9121 235.925 14.9894 235.925 18.7679C235.925 22.5463 238.857 25.6236 242.462 25.6236C246.065 25.6236 249 22.5463 249 18.7679C249 14.9894 246.065 11.9148 242.465 11.9121ZM242.462 23.2017C240.13 23.2017 238.232 21.2113 238.232 18.7679C238.232 16.3244 240.127 14.334 242.462 14.334C244.792 14.334 246.69 16.3244 246.69 18.7679C246.69 21.2113 244.792 23.2017 242.462 23.2017Z" fill="white"/>
<path d="M68.1873 31.0314C68.6785 31.0314 69.1183 31.1527 69.5144 31.3955C69.9105 31.6382 70.2217 31.9753 70.448 32.4068C70.6743 32.8384 70.79 33.3184 70.79 33.847C70.79 34.3757 70.6743 34.853 70.448 35.2845C70.2217 35.7161 69.9105 36.0532 69.5144 36.2959C69.1183 36.5386 68.6785 36.66 68.1873 36.66C67.7912 36.66 67.4235 36.5953 67.0891 36.4658C66.7522 36.3364 66.4693 36.1449 66.2378 35.8914L66.4796 35.6217C66.9091 36.0667 67.4723 36.2878 68.1744 36.2878C68.5757 36.2878 68.9434 36.188 69.2778 35.9858C69.6095 35.7862 69.8745 35.5057 70.0751 35.1497C70.2731 34.7937 70.3811 34.3945 70.3965 33.9576H67.5315V33.6151H70.3888C70.358 33.1944 70.2422 32.8141 70.0416 32.4797C69.8384 32.1425 69.5761 31.8809 69.2495 31.6894C68.9254 31.498 68.5654 31.4036 68.1744 31.4036C67.4826 31.4036 66.9168 31.6247 66.4796 32.0697L66.2378 31.8081C66.4693 31.5546 66.7522 31.3604 67.0891 31.231C67.4235 31.0988 67.7912 31.0314 68.1873 31.0314ZM73.8814 33.99H72.6109V36.6195H72.2251V31.0718H72.6109V33.6232H73.8891L75.7872 31.0718H76.2167L74.19 33.7742L76.353 36.6195H75.9003L73.8814 33.99ZM79.5601 36.66C79.0406 36.66 78.5699 36.5386 78.1533 36.2905C77.7341 36.0451 77.4049 35.708 77.1657 35.2818C76.9265 34.853 76.8056 34.3757 76.8056 33.847C76.8056 33.3184 76.9265 32.8384 77.1657 32.4122C77.4049 31.9834 77.7341 31.6463 78.1533 31.4009C78.5699 31.1554 79.0406 31.0314 79.5601 31.0314C80.0771 31.0314 80.5477 31.1527 80.9644 31.3955C81.3836 31.6382 81.7128 31.9753 81.9519 32.4041C82.1911 32.8303 82.312 33.313 82.312 33.847C82.312 34.381 82.1911 34.8611 81.9519 35.2899C81.7128 35.7161 81.3836 36.0532 80.9644 36.2959C80.5477 36.5386 80.0771 36.66 79.5601 36.66ZM79.5601 36.2878C80.0025 36.2878 80.4037 36.1826 80.7612 35.9696C81.1187 35.7592 81.4016 35.4679 81.6073 35.0957C81.8156 34.7209 81.9185 34.3055 81.9185 33.847C81.9185 33.3859 81.8156 32.9705 81.6073 32.5983C81.4016 32.2235 81.1187 31.9322 80.7612 31.7218C80.4037 31.5087 80.0025 31.4036 79.5601 31.4036C79.1152 31.4036 78.714 31.5087 78.3539 31.7218C77.9938 31.9322 77.7084 32.2235 77.5026 32.5983C77.2969 32.9705 77.194 33.3859 77.194 33.847C77.194 34.3055 77.2969 34.7209 77.5026 35.0957C77.7084 35.4679 77.9938 35.7592 78.3539 35.9696C78.714 36.1826 79.1152 36.2878 79.5601 36.2878ZM86.0078 36.66C85.4883 36.66 85.0202 36.5386 84.6061 36.2959C84.1895 36.0532 83.8628 35.7161 83.6237 35.2899C83.3845 34.8611 83.2636 34.381 83.2636 33.847C83.2636 33.313 83.3845 32.8303 83.6237 32.4041C83.8628 31.9753 84.1895 31.6382 84.6061 31.3955C85.0202 31.1527 85.4883 31.0314 86.0078 31.0314C86.391 31.0314 86.7433 31.0961 87.0674 31.2256C87.3889 31.355 87.6641 31.5465 87.8904 31.8L87.6486 32.0616C87.2243 31.6247 86.6842 31.4036 86.0232 31.4036C85.5809 31.4036 85.1771 31.5087 84.8144 31.7218C84.4518 31.9322 84.1663 32.2235 83.958 32.5983C83.7523 32.9705 83.6494 33.3859 83.6494 33.847C83.6494 34.3055 83.7523 34.7209 83.958 35.0957C84.1663 35.4679 84.4518 35.7592 84.8144 35.9696C85.1771 36.1826 85.5809 36.2878 86.0232 36.2878C86.679 36.2878 87.2191 36.0667 87.6486 35.6217L87.8904 35.8833C87.6641 36.1368 87.3889 36.331 87.0623 36.4631C86.7382 36.5953 86.3859 36.66 86.0078 36.66ZM89.1378 31.0718H89.5235V35.9399L93.1293 31.0718H93.4688V36.6195H93.083V31.7596L89.4772 36.6195H89.1378V31.0718ZM97.6429 36.66C97.1234 36.66 96.6553 36.5386 96.2413 36.2959C95.8246 36.0532 95.498 35.7161 95.2588 35.2899C95.017 34.8611 94.8987 34.381 94.8987 33.847C94.8987 33.313 95.017 32.8303 95.2588 32.4041C95.498 31.9753 95.8246 31.6382 96.2413 31.3955C96.6553 31.1527 97.1234 31.0314 97.6429 31.0314C98.0261 31.0314 98.3785 31.0961 98.7025 31.2256C99.024 31.355 99.2992 31.5465 99.5255 31.8L99.2838 32.0616C98.8594 31.6247 98.3193 31.4036 97.6584 31.4036C97.2134 31.4036 96.8122 31.5087 96.4496 31.7218C96.0869 31.9322 95.8015 32.2235 95.5931 32.5983C95.3874 32.9705 95.2845 33.3859 95.2845 33.847C95.2845 34.3055 95.3874 34.7209 95.5931 35.0957C95.8015 35.4679 96.0869 35.7592 96.4496 35.9696C96.8122 36.1826 97.2134 36.2878 97.6584 36.2878C98.3142 36.2878 98.8543 36.0667 99.2838 35.6217L99.5255 35.8833C99.2992 36.1368 99.024 36.331 98.6974 36.4631C98.3733 36.5953 98.021 36.66 97.6429 36.66ZM104.024 31.4359H102.118V36.6195H101.732V31.4359H99.829V31.0718H104.024V31.4359ZM108.705 36.2555V36.6195H105.052V31.0718H108.591V31.4359H105.438V33.6232H108.257V33.9819H105.438V36.2555H108.705ZM114.993 36.6195L114.985 31.8728L112.771 35.8833H112.583L110.366 31.889V36.6195H109.988V31.0718H110.315L112.681 35.3601L115.047 31.0718H115.363L115.371 36.6195H114.993ZM120.625 35.058H117.557L116.883 36.6195H116.469L118.902 31.0718H119.288L121.723 36.6195H121.307L120.625 35.058ZM120.484 34.7182L119.092 31.5141L117.709 34.7182H120.484ZM126.054 31.0314C126.543 31.0314 126.985 31.1527 127.381 31.3955C127.778 31.6382 128.089 31.9753 128.315 32.4068C128.541 32.8384 128.655 33.3184 128.655 33.847C128.655 34.3757 128.541 34.853 128.315 35.2845C128.089 35.7161 127.778 36.0532 127.381 36.2959C126.985 36.5386 126.543 36.66 126.054 36.66C125.656 36.66 125.291 36.5953 124.954 36.4658C124.619 36.3364 124.336 36.1449 124.105 35.8914L124.347 35.6217C124.774 36.0667 125.339 36.2878 126.039 36.2878C126.443 36.2878 126.81 36.188 127.142 35.9858C127.477 35.7862 127.742 35.5057 127.942 35.1497C128.14 34.7937 128.248 34.3945 128.264 33.9576H125.396V33.6151H128.256C128.225 33.1944 128.109 32.8141 127.906 32.4797C127.706 32.1425 127.441 31.8809 127.117 31.6894C126.792 31.498 126.432 31.4036 126.039 31.4036C125.35 31.4036 124.784 31.6247 124.347 32.0697L124.105 31.8081C124.336 31.5546 124.619 31.3604 124.954 31.231C125.291 31.0988 125.656 31.0314 126.054 31.0314ZM135.604 33.847C135.604 34.3325 135.491 34.7532 135.264 35.1065C135.035 35.4598 134.711 35.7349 134.284 35.9264C133.857 36.1206 133.351 36.2204 132.762 36.2312V36.7948H132.391V36.2312C131.8 36.2204 131.293 36.1206 130.866 35.9264C130.442 35.7349 130.115 35.4598 129.889 35.1065C129.66 34.7532 129.547 34.3325 129.547 33.847C129.547 33.3535 129.66 32.9328 129.889 32.5768C130.115 32.2235 130.442 31.9511 130.866 31.7569C131.293 31.5627 131.8 31.4629 132.391 31.4521V30.8965H132.762V31.4521C133.652 31.4791 134.349 31.7002 134.85 32.1183C135.352 32.5363 135.604 33.1108 135.604 33.847ZM132.762 35.8995C133.536 35.8725 134.14 35.681 134.575 35.325C135.01 34.969 135.226 34.4727 135.226 33.8389C135.226 33.2079 135.01 32.717 134.575 32.3583C134.14 32.0023 133.536 31.8108 132.762 31.7838V35.8995ZM129.925 33.847C129.925 34.4808 130.141 34.9744 130.576 35.3277C131.01 35.6837 131.615 35.8725 132.391 35.8995V31.7838C131.61 31.8108 131.003 32.0023 130.571 32.3583C130.141 32.717 129.925 33.2105 129.925 33.847ZM142.476 33.847C142.476 34.3325 142.363 34.7532 142.136 35.1065C141.91 35.4598 141.583 35.7349 141.156 35.9264C140.729 36.1206 140.223 36.2204 139.634 36.2312V36.7948H139.263V36.2312C138.672 36.2204 138.165 36.1206 137.738 35.9264C137.314 35.7349 136.987 35.4598 136.761 35.1065C136.532 34.7532 136.419 34.3325 136.419 33.847C136.419 33.3535 136.532 32.9328 136.761 32.5768C136.987 32.2235 137.314 31.9511 137.738 31.7569C138.165 31.5627 138.672 31.4629 139.263 31.4521V30.8965H139.634V31.4521C140.524 31.4791 141.221 31.7002 141.722 32.1183C142.224 32.5363 142.476 33.1108 142.476 33.847ZM139.634 35.8995C140.408 35.8725 141.015 35.681 141.447 35.325C141.882 34.969 142.098 34.4727 142.098 33.8389C142.098 33.2079 141.882 32.717 141.447 32.3583C141.015 32.0023 140.408 31.8108 139.634 31.7838V35.8995ZM136.797 33.847C136.797 34.4808 137.016 34.9744 137.448 35.3277C137.882 35.6837 138.487 35.8725 139.263 35.8995V31.7838C138.482 31.8108 137.875 32.0023 137.445 32.3583C137.013 32.717 136.797 33.2105 136.797 33.847ZM147.488 36.2555V36.6195H143.836V31.0718H147.375V31.4359H144.222V33.6232H147.043V33.9819H144.222V36.2555H147.488ZM150.428 33.99H149.16V36.6195H148.774V31.0718H149.16V33.6232H150.436L152.334 31.0718H152.766L150.739 33.7742L152.902 36.6195H152.447L150.428 33.99ZM157.12 31.4359H155.214V36.6195H154.828V31.4359H152.923V31.0718H157.12V31.4359ZM158.149 31.0718H158.535V35.9399L162.14 31.0718H162.48V36.6195H162.094V31.7596L158.488 36.6195H158.149V31.0718ZM167.364 33.7661C167.757 33.8363 168.053 33.9873 168.254 34.2192C168.452 34.4512 168.552 34.7613 168.552 35.147C168.552 35.6217 168.392 35.9858 168.074 36.2393C167.757 36.4928 167.287 36.6195 166.662 36.6195H164.386V31.0718H166.518C167.071 31.0718 167.503 31.1932 167.814 31.4359C168.125 31.6787 168.279 32.0266 168.279 32.4824C168.279 32.806 168.197 33.073 168.038 33.2915C167.876 33.5072 167.652 33.6663 167.364 33.7661ZM164.771 33.6394H166.51C166.952 33.6394 167.294 33.545 167.531 33.3535C167.768 33.1647 167.886 32.8896 167.886 32.5309C167.886 32.1641 167.768 31.889 167.531 31.6975C167.294 31.5061 166.952 31.4117 166.51 31.4117H164.771V33.6394ZM166.669 36.2797C167.667 36.2797 168.166 35.8941 168.166 35.1227C168.166 34.7263 168.04 34.435 167.788 34.2489C167.536 34.0655 167.163 33.9738 166.669 33.9738H164.771V36.2797H166.669ZM174.364 31.0718V36.6195H173.979V33.9819H170.442V36.6195H170.056V31.0718H170.442V33.6232H173.979V31.0718H174.364ZM178.539 36.66C178.019 36.66 177.551 36.5386 177.132 36.2905C176.712 36.0451 176.386 35.708 176.144 35.2818C175.905 34.853 175.787 34.3757 175.787 33.847C175.787 33.3184 175.905 32.8384 176.144 32.4122C176.386 31.9834 176.712 31.6463 177.132 31.4009C177.551 31.1554 178.019 31.0314 178.539 31.0314C179.058 31.0314 179.526 31.1527 179.945 31.3955C180.362 31.6382 180.691 31.9753 180.93 32.4041C181.17 32.8303 181.29 33.313 181.29 33.847C181.29 34.381 181.17 34.8611 180.93 35.2899C180.691 35.7161 180.362 36.0532 179.945 36.2959C179.526 36.5386 179.058 36.66 178.539 36.66ZM178.539 36.2878C178.981 36.2878 179.382 36.1826 179.74 35.9696C180.097 35.7592 180.38 35.4679 180.588 35.0957C180.794 34.7209 180.897 34.3055 180.897 33.847C180.897 33.3859 180.794 32.9705 180.588 32.5983C180.38 32.2235 180.097 31.9322 179.74 31.7218C179.382 31.5087 178.981 31.4036 178.539 31.4036C178.094 31.4036 177.692 31.5087 177.332 31.7218C176.972 31.9322 176.689 32.2235 176.481 32.5983C176.275 32.9705 176.172 33.3859 176.172 33.847C176.172 34.3055 176.275 34.7209 176.481 35.0957C176.689 35.4679 176.972 35.7592 177.332 35.9696C177.692 36.1826 178.094 36.2878 178.539 36.2878ZM185.992 31.4359H183.104V36.6195H182.72V31.0718H185.992V31.4359ZM188.517 36.66C187.998 36.66 187.53 36.5386 187.111 36.2905C186.694 36.0451 186.365 35.708 186.126 35.2818C185.886 34.853 185.765 34.3757 185.765 33.847C185.765 33.3184 185.886 32.8384 186.126 32.4122C186.365 31.9834 186.694 31.6463 187.111 31.4009C187.53 31.1554 187.998 31.0314 188.517 31.0314C189.037 31.0314 189.505 31.1527 189.924 31.3955C190.343 31.6382 190.67 31.9753 190.912 32.4041C191.151 32.8303 191.269 33.313 191.269 33.847C191.269 34.381 191.151 34.8611 190.912 35.2899C190.67 35.7161 190.343 36.0532 189.924 36.2959C189.505 36.5386 189.037 36.66 188.517 36.66ZM188.517 36.2878C188.962 36.2878 189.361 36.1826 189.721 35.9696C190.078 35.7592 190.359 35.4679 190.567 35.0957C190.773 34.7209 190.876 34.3055 190.876 33.847C190.876 33.3859 190.773 32.9705 190.567 32.5983C190.359 32.2235 190.078 31.9322 189.721 31.7218C189.361 31.5087 188.962 31.4036 188.517 31.4036C188.075 31.4036 187.671 31.5087 187.311 31.7218C186.951 31.9322 186.668 32.2235 186.462 32.5983C186.254 32.9705 186.151 33.3859 186.151 33.847C186.151 34.3055 186.254 34.7209 186.462 35.0957C186.668 35.4679 186.951 35.7592 187.311 35.9696C187.671 36.1826 188.075 36.2878 188.517 36.2878ZM198.648 31.0718L196.207 35.8131C196.05 36.1179 195.865 36.3472 195.652 36.4928C195.436 36.6411 195.209 36.7166 194.968 36.7166C194.78 36.7166 194.579 36.6681 194.361 36.5737L194.482 36.2393C194.654 36.3148 194.816 36.3525 194.968 36.3525C195.325 36.3525 195.621 36.1422 195.857 35.7241L196.04 35.4005L193.869 31.0718H194.294L196.251 35.0202L198.247 31.0718H198.648ZM203.956 31.0718V36.6195H203.571V31.4359H199.988V36.6195H199.602V31.0718H203.956ZM207.76 31.0718C208.424 31.0718 208.946 31.2364 209.324 31.5654C209.702 31.8971 209.892 32.3556 209.892 32.9409C209.892 33.5234 209.702 33.9792 209.324 34.3109C208.946 34.64 208.424 34.8045 207.76 34.8045H206.248V36.6195H205.862V31.0718H207.76ZM207.76 34.4404C208.323 34.4404 208.755 34.3109 209.051 34.052C209.35 33.7931 209.499 33.4236 209.499 32.9409C209.499 32.4608 209.35 32.0886 209.051 31.827C208.755 31.5654 208.323 31.4359 207.76 31.4359H206.248V34.4404H207.76ZM214.208 35.058H211.137L210.466 36.6195H210.049L212.485 31.0718H212.87L215.303 36.6195H214.889L214.208 35.058ZM214.064 34.7182L212.672 31.5141L211.289 34.7182H214.064ZM219.38 33.7661C219.771 33.8363 220.069 33.9873 220.267 34.2192C220.465 34.4512 220.565 34.7613 220.565 35.147C220.565 35.6217 220.406 35.9858 220.09 36.2393C219.771 36.4928 219.3 36.6195 218.675 36.6195H216.399V31.0718H218.531C219.087 31.0718 219.519 31.1932 219.83 31.4359C220.139 31.6787 220.293 32.0266 220.293 32.4824C220.293 32.806 220.213 33.073 220.051 33.2915C219.892 33.5072 219.665 33.6663 219.38 33.7661ZM216.785 33.6394H218.523C218.968 33.6394 219.308 33.545 219.544 33.3535C219.781 33.1647 219.899 32.8896 219.899 32.5309C219.899 32.1641 219.781 31.889 219.544 31.6975C219.308 31.5061 218.968 31.4117 218.523 31.4117H216.785V33.6394ZM218.683 36.2797C219.681 36.2797 220.18 35.8941 220.18 35.1227C220.18 34.7263 220.054 34.435 219.802 34.2489C219.55 34.0655 219.177 33.9738 218.683 33.9738H216.785V36.2797H218.683ZM226.069 31.0718V36.6195H225.683V31.4359H222.947L222.88 33.4722C222.849 34.2354 222.788 34.8449 222.695 35.3088C222.6 35.77 222.463 36.1125 222.281 36.3364C222.101 36.5575 221.862 36.6681 221.563 36.6681C221.427 36.6681 221.301 36.6519 221.185 36.6195L221.232 36.2474C221.316 36.2689 221.401 36.2797 221.481 36.2797C221.712 36.2797 221.9 36.1853 222.044 35.9992C222.188 35.8104 222.296 35.5138 222.373 35.1065C222.448 34.6993 222.499 34.1572 222.525 33.4802L222.6 31.0718H226.069ZM231.627 36.2555V36.6195H227.975V31.0718H231.514V31.4359H228.361V33.6232H231.18V33.9819H228.361V36.2555H231.627ZM237.221 31.0718V36.6195H236.835V33.9819H233.296V36.6195H232.913V31.0718H233.296V33.6232H236.835V31.0718H237.221ZM239.127 31.0718H239.512V35.9399L243.118 31.0718H243.458V36.6195H243.072V31.7596L239.466 36.6195H239.127V31.0718ZM248.992 31.0718V36.6195H248.607V34.8773H246.919C246.791 34.8773 246.667 34.8692 246.549 34.853L245.379 36.6195H244.962L246.186 34.7802C245.793 34.6642 245.492 34.4539 245.281 34.1518C245.068 33.847 244.962 33.4641 244.962 33.0056C244.962 32.3934 245.145 31.916 245.51 31.5789C245.875 31.239 246.372 31.0718 246.997 31.0718H248.992ZM245.356 32.9975C245.356 33.4883 245.492 33.8659 245.765 34.1302C246.037 34.3945 246.433 34.5267 246.958 34.5267H248.607V31.4359H247.027C246.492 31.4359 246.081 31.5681 245.79 31.8351C245.5 32.1021 245.356 32.4905 245.356 32.9975Z" fill="white"/>
<path fill-rule="evenodd" clip-rule="evenodd" d="M10.3587 50.6008C10.3896 50.3958 10.3253 50.3527 10.1632 50.4714C9.36597 51.0431 6.04826 53.43 0.212685 57.6265C0.158676 57.6642 0.107239 57.6858 0.0583731 57.6885C0.0532294 57.6912 0.0480856 57.6885 0.04037 57.6885C0.0120794 57.6804 -0.00592365 57.6507 0.00179196 57.6211C0.00179196 57.613 0.00436383 57.6076 0.00950757 57.6022L5.04266 49.6137C5.13782 49.4654 5.10181 49.4141 4.93978 49.46L2.63539 50.1019C2.38849 50.172 2.34219 50.0965 2.49651 49.8834L9.25023 40.4871C9.25281 40.4844 9.25538 40.4817 9.25795 40.479C9.28624 40.4493 9.33253 40.4493 9.36083 40.479C9.3634 40.4817 9.36597 40.4844 9.36854 40.4871C11.2074 43.1652 13.4475 45.4199 16.094 47.2484C16.1994 47.3213 16.202 47.3995 16.1094 47.4858L10.2173 52.7773C10.0552 52.9202 9.99093 52.8825 10.0269 52.664L10.3587 50.6008ZM10.6005 36.2178C10.6005 36.3121 10.6442 36.536 10.639 36.6169C10.6185 36.9082 10.5362 36.9244 10.3947 36.6682C8.61241 33.4506 7.59909 29.9877 7.35477 26.2793C7.06672 21.9048 7.80999 17.6058 9.65916 13.7141C12.2182 8.32816 16.5312 4.03455 21.909 1.82032C26.3172 0.0025507 30.8951 -0.375028 35.6376 0.679495C35.6453 0.682192 35.6505 0.684889 35.6556 0.687586C35.6788 0.703768 35.6865 0.738829 35.671 0.763102C35.6685 0.768496 35.6633 0.77389 35.6582 0.779284C35.5425 0.865588 35.4164 0.941104 35.2801 1.00583C26.973 4.95962 19.9364 11.4351 15.3018 19.7095C12.4985 24.7151 10.7291 30.403 10.6005 36.2178ZM52.2776 0.250674C52.4422 0.258765 52.5708 0.296523 52.6634 0.366644C52.7045 0.396311 52.7277 0.439463 52.7328 0.490706C52.9051 2.42445 52.9746 4.00758 52.9437 5.23741C52.72 13.83 50.0015 21.4113 44.7883 27.9784C44.5131 28.3237 44.4334 28.2805 44.5543 27.8463C45.0481 26.0474 45.3567 24.111 45.4776 22.0397C45.5599 20.6318 45.5702 19.4452 45.5059 18.4742C45.3156 15.5022 44.2868 12.9481 42.4196 10.8067C39.8272 8.02071 36.17 6.72615 32.5154 7.15228C30.0232 7.44355 27.7085 8.27153 25.5739 9.6416C24.6635 10.2241 23.8147 10.8687 23.0252 11.5699C23.02 11.5753 23.0149 11.5753 23.0072 11.5726L22.9737 11.5484C22.9429 11.5268 22.9403 11.4998 22.966 11.4729C24.1491 10.2188 24.9592 9.39348 25.399 8.99432C31.0545 3.83767 37.6051 0.88177 45.0455 0.123915C46.6118 -0.0352073 48.497 -0.0109344 49.9758 0.0322175C50.6753 0.0510964 51.4418 0.126612 52.2776 0.250674ZM18.4267 32.0024C18.3495 31.1016 18.4678 30.1981 18.7147 29.2379C19.0028 28.2239 19.4271 27.0884 19.9929 25.9368C20.8828 24.1029 22.1019 22.2743 23.537 20.6049C24.5863 19.3804 25.7359 18.2639 26.919 17.3118C27.6983 16.6861 28.4904 16.1306 29.2722 15.6694C30.553 14.9142 31.7952 14.4018 32.9269 14.1698C33.4464 14.1159 33.881 14.0674 34.2874 14.0674C35.113 14.0269 35.8717 14.2319 36.4786 14.6337C36.6278 14.7335 36.7692 14.8441 36.8978 14.9682C37.2862 15.3349 37.5845 15.8042 37.7851 16.3652C38.05 17.1365 38.1349 18.1236 38.0089 19.2429L37.978 19.1889C37.9163 20.1491 37.6823 21.12 37.3248 22.1287C36.6947 23.9006 35.6942 25.7669 34.416 27.555C33.953 28.205 33.449 28.8442 32.9243 29.4564C32.0061 30.5244 31.016 31.5115 29.9898 32.3799C28.6113 33.545 27.189 34.4782 25.8311 35.1093C24.3677 35.7862 23.0072 36.0991 21.8575 36.0236C20.9471 35.9777 20.1704 35.6649 19.5892 35.1174C19.3885 34.9259 19.2111 34.7074 19.0593 34.4647C18.6504 33.8147 18.4292 33.011 18.3907 32.0725L18.4267 32.0024ZM28.3669 20.8988C30.3987 20.8988 32.0473 22.6276 32.0473 24.7582C32.0473 26.8889 30.3987 28.6176 28.3669 28.6176C26.3326 28.6176 24.6866 26.8889 24.6866 24.7582C24.6866 22.6276 26.3326 20.8988 28.3669 20.8988ZM51.6707 19.2132C51.9561 18.5471 52.257 17.8593 52.5708 17.1527C52.6454 16.9882 52.702 16.9936 52.7457 17.1689C52.9051 17.8243 53.0492 18.4338 53.1752 18.9975C54.6977 25.7615 53.3064 32.976 49.464 38.6154C42.916 48.2275 30.7845 51.5367 20.5896 46.5095C20.4662 46.4474 20.3581 46.3692 20.2681 46.2775C20.2553 46.2667 20.2501 46.2506 20.2501 46.2317C20.2501 46.202 20.2707 46.175 20.299 46.1723C20.5125 46.14 20.6925 46.1049 20.8391 46.0672C34.704 42.4289 45.7888 32.8789 51.6707 19.2132Z" fill="url(#paint0_linear_80_1321)"/>
<defs>
<linearGradient id="paint0_linear_80_1321" x1="9.2168" y1="44.7753" x2="39.1119" y2="20.5906" gradientUnits="userSpaceOnUse">
<stop stop-color="#FF876C"/>
<stop offset="1" stop-color="#5E8CFF"/>
</linearGradient>
</defs>
</svg>
