<svg width="249" height="56" viewBox="0 0 249 56" fill="none" xmlns="http://www.w3.org/2000/svg">
<path d="M72.7786 16C72.776 16 72.776 16 72.776 16C69.1702 16 66.2383 19.0773 66.2383 22.8558C66.2383 26.6342 69.1702 29.7115 72.776 29.7115C76.3792 29.7115 79.3137 26.6342 79.3137 22.8558C79.3137 19.0773 76.3792 16.0027 72.7786 16ZM72.776 27.2896C70.4433 27.2896 68.5452 25.2992 68.5452 22.8558C68.5452 20.4123 70.4407 18.4219 72.776 18.4219C75.1061 18.4219 77.0041 20.4123 77.0041 22.8558C77.0041 25.2992 75.1061 27.2896 72.776 27.2896ZM90.2313 16.3587H82.5825C81.9473 16.3587 81.4303 16.9008 81.4303 17.5697V28.096C81.4303 28.7622 81.9473 29.3043 82.5825 29.3043C83.2178 29.3043 83.7373 28.7622 83.7373 28.096V18.7779H89.0791V28.096C89.0791 28.7622 89.5986 29.3043 90.2313 29.3043C90.8691 29.3043 91.3886 28.7622 91.3886 28.096V17.5697C91.3886 16.9008 90.8691 16.3587 90.2313 16.3587ZM102.584 16.3155H94.1611C93.5232 16.3155 93.0089 16.8576 93.0089 17.5238C93.0089 18.1927 93.5232 18.7374 94.1611 18.7374H97.219V28.0529C97.219 28.719 97.736 29.2638 98.3738 29.2638C99.009 29.2638 99.5286 28.719 99.5286 28.0529V18.7374H102.584C103.222 18.7374 103.739 18.1927 103.739 17.5238C103.739 16.8576 103.222 16.3155 102.584 16.3155ZM116.181 17.5697C116.181 17.3916 116.148 17.211 116.073 17.0491C116.001 16.8927 115.901 16.7579 115.78 16.65C115.78 16.65 115.78 16.65 115.778 16.6473C115.778 16.6473 115.778 16.6473 115.775 16.6446H115.772C115.772 16.6419 115.772 16.6419 115.772 16.6419C115.77 16.6419 115.77 16.6365 115.767 16.6365C115.747 16.6203 115.729 16.6041 115.708 16.5906C115.518 16.445 115.284 16.3587 115.029 16.3587C115.003 16.3587 114.975 16.3614 114.949 16.3614C114.949 16.3614 114.949 16.3614 114.947 16.3614C114.947 16.3614 114.947 16.3614 114.944 16.3614C114.811 16.3722 114.682 16.4072 114.559 16.4639C114.559 16.4639 114.559 16.4639 114.556 16.4639C114.556 16.4666 114.556 16.4666 114.553 16.4666C114.412 16.5313 114.289 16.6284 114.186 16.7417L114.183 16.7444C114.183 16.7444 114.183 16.7444 114.18 16.7498C114.17 16.7606 114.16 16.774 114.15 16.7848L114.144 16.7929L107.669 24.7976V17.5697C107.669 16.8981 107.152 16.3587 106.514 16.3587C105.876 16.3587 105.362 16.8981 105.362 17.5697V28.0933C105.362 28.0987 105.362 28.1068 105.362 28.1122C105.362 28.1122 105.362 28.1149 105.362 28.1176V28.1203C105.362 28.1203 105.362 28.1203 105.362 28.123C105.364 28.2956 105.403 28.4628 105.475 28.6192C105.531 28.7487 105.614 28.8673 105.711 28.9617C105.729 28.9833 105.747 29.0022 105.768 29.0157C105.819 29.0642 105.873 29.1047 105.93 29.1397C105.935 29.1397 105.935 29.1397 105.935 29.1397C105.935 29.1397 105.935 29.1424 105.938 29.1424H105.94V29.1451C105.943 29.1451 105.945 29.1451 105.945 29.1478C105.989 29.1721 106.03 29.1964 106.077 29.2153C106.079 29.2153 106.084 29.218 106.084 29.218C106.087 29.218 106.087 29.218 106.087 29.218L106.089 29.2207C106.092 29.2207 106.092 29.2207 106.092 29.2207C106.095 29.2207 106.095 29.2207 106.095 29.2207C106.097 29.2234 106.097 29.2233 106.1 29.2233C106.2 29.2638 106.303 29.2908 106.408 29.2989H106.411H106.413C106.416 29.2989 106.416 29.2989 106.419 29.2989C106.421 29.2989 106.424 29.3016 106.426 29.3016C106.455 29.3016 106.485 29.3043 106.514 29.3043C106.681 29.3043 106.846 29.2665 106.997 29.1937C106.997 29.1937 107 29.1937 107 29.191C107 29.191 107 29.191 107.002 29.191C107.144 29.1209 107.27 29.0238 107.373 28.9024C107.383 28.8943 107.388 28.8835 107.393 28.8781L107.398 28.8727C107.566 28.6624 107.566 28.6624 107.398 28.8727L113.877 20.8654V28.0933C113.877 28.7649 114.394 29.3043 115.029 29.3043C115.667 29.3043 116.184 28.7649 116.184 28.0933V17.5697H116.181ZM128.591 27.3274L124.468 22.0628L127.829 18.4084C128.272 17.9283 128.256 17.1597 127.799 16.6985C127.338 16.2346 126.61 16.2454 126.165 16.7282L121.071 22.2732V17.5697C121.071 16.8981 120.554 16.3587 119.916 16.3587C119.278 16.3587 118.764 16.8981 118.764 17.5697V28.096C118.764 28.7649 119.278 29.3043 119.916 29.3043C120.554 29.3043 121.071 28.7649 121.071 28.096V25.7577L122.858 23.8159L126.806 28.8647C127.035 29.1559 127.364 29.3043 127.698 29.3043C127.955 29.3043 128.218 29.2153 128.431 29.0319C128.922 28.6084 128.994 27.8452 128.591 27.3274ZM142.137 27.5404L137.044 17.0249C137.047 17.0356 137.052 17.041 137.055 17.0464C136.978 16.8711 136.859 16.7147 136.705 16.596L136.702 16.5933C136.666 16.5691 136.635 16.5448 136.597 16.5232C136.587 16.5151 136.574 16.507 136.563 16.5016C136.556 16.4962 136.543 16.4882 136.533 16.4801C136.517 16.4747 136.499 16.4666 136.484 16.4612C136.468 16.4504 136.455 16.445 136.437 16.4396C136.399 16.4207 136.363 16.4099 136.322 16.3965C136.314 16.3938 136.306 16.3911 136.296 16.3911C136.26 16.3776 136.219 16.3695 136.18 16.3641C136.167 16.3641 136.155 16.3614 136.142 16.3614C136.106 16.356 136.067 16.356 136.034 16.3506C136.023 16.3506 136.016 16.3506 136.011 16.3506C136.005 16.3506 136 16.3506 135.998 16.3506C135.951 16.3506 135.908 16.356 135.864 16.3614C135.843 16.3641 135.828 16.3668 135.807 16.3722C135.787 16.3749 135.764 16.3776 135.74 16.3857C135.715 16.3911 135.689 16.3992 135.663 16.4099C135.65 16.4126 135.64 16.4153 135.63 16.4207C135.54 16.4504 135.458 16.4962 135.383 16.5475C135.368 16.5556 135.355 16.5664 135.339 16.5772C135.321 16.5906 135.306 16.6041 135.288 16.6203C135.267 16.6338 135.249 16.6527 135.231 16.6716C135.218 16.6823 135.208 16.6958 135.195 16.7066C135.134 16.7686 135.077 16.8415 135.033 16.9197C135.025 16.9332 135.02 16.9413 135.015 16.952C135.002 16.9736 134.992 16.9925 134.982 17.0141L129.882 27.5404C129.493 28.3495 130.057 29.2989 130.913 29.2989C131.33 29.2989 131.739 29.0561 131.942 28.6354L132.749 26.966H139.269L140.082 28.6354C140.37 29.2341 141.062 29.4715 141.633 29.1667C142.201 28.8646 142.427 28.1365 142.137 27.5404ZM133.922 24.5468L136.011 20.2343L138.101 24.5468H133.922ZM155.047 21.332H154.474H151.023V18.7779H157.007C157.645 18.7779 158.159 18.2358 158.159 17.5697C158.159 16.8981 157.645 16.3587 157.007 16.3587H149.868C149.791 16.3587 149.713 16.3668 149.636 16.383C149.598 16.3911 149.562 16.3992 149.526 16.4126C149.058 16.5664 148.716 17.0249 148.716 17.5697V28.096C148.716 28.6381 149.058 29.0993 149.526 29.2503C149.636 29.2881 149.749 29.3043 149.868 29.3043H155.047C155.086 29.3043 155.127 29.3016 155.166 29.2989C157.208 29.2341 158.849 27.4757 158.849 25.3181C158.851 23.1201 157.146 21.332 155.047 21.332ZM155.047 26.8851H151.023V23.7512H154.474L155.047 23.7485C155.873 23.7485 156.544 24.4524 156.544 25.3181C156.544 26.1811 155.873 26.8851 155.047 26.8851ZM170.551 16.5664C170.353 16.4288 170.134 16.3641 169.915 16.3641C169.543 16.3641 169.172 16.5583 168.951 16.9089L165.638 22.168L161.966 16.8603C161.74 16.5421 161.39 16.3641 161.03 16.3641C160.793 16.3641 160.559 16.4369 160.353 16.596C159.841 16.9871 159.726 17.745 160.101 18.2817L164.286 24.3202L162.323 27.4299C161.971 27.9854 162.115 28.7379 162.645 29.1074C162.843 29.2395 163.061 29.3043 163.283 29.3043C163.656 29.3043 164.018 29.1128 164.244 28.7622L166.603 25.0241C166.613 25.008 166.629 24.9972 166.639 24.9783L166.652 24.9594C166.657 24.954 166.657 24.9486 166.662 24.9432L166.667 24.9297C166.662 24.9351 166.659 24.9432 166.657 24.9486L166.652 24.954C166.641 24.9648 166.636 24.9729 166.631 24.981C166.634 24.9756 166.639 24.9702 166.644 24.9594L166.657 24.9486C166.659 24.9432 166.662 24.9351 166.665 24.9297H166.667L170.877 18.2412C171.23 17.6829 171.081 16.9332 170.551 16.5664ZM182.353 26.9012H181.772V17.5616C181.772 17.3377 181.723 17.1327 181.62 16.9493C181.517 16.7632 181.378 16.6176 181.198 16.5043C181.016 16.3938 180.825 16.3398 180.62 16.3398H174.347C174.048 16.3398 173.796 16.4396 173.586 16.6446C173.326 16.8873 173.197 17.1867 173.197 17.5454H173.182C173.182 17.5939 173.182 17.6425 173.182 17.691C173.182 17.7369 173.182 17.78 173.182 17.8124C173.182 17.8474 173.182 17.8933 173.182 17.9526C173.182 18.8318 173.179 19.4764 173.174 19.8756C173.171 20.2801 173.156 20.7979 173.135 21.4398C173.112 22.0763 173.079 22.5483 173.043 22.8558C173.007 23.1605 172.953 23.5381 172.883 23.9885C172.817 24.4362 172.727 24.8003 172.621 25.0781C172.516 25.3532 172.384 25.6525 172.233 25.9708C172.081 26.289 171.904 26.6019 171.7 26.9012H171.353C171.042 26.9012 170.769 27.0199 170.543 27.2572C170.317 27.4946 170.204 27.7778 170.204 28.1068V30.9413C170.204 31.2704 170.317 31.5509 170.543 31.7882C170.769 32.0255 171.042 32.1469 171.358 32.1469C171.68 32.1469 171.952 32.0255 172.176 31.7882C172.402 31.5509 172.518 31.2704 172.518 30.9413V29.3258H172.67C172.678 29.3258 172.693 29.3258 172.714 29.3258C172.729 29.3258 181.173 29.3258 181.191 29.3258V30.9413C181.191 31.2704 181.304 31.5509 181.53 31.7882C181.756 32.0255 182.029 32.1469 182.348 32.1469C182.664 32.1469 182.937 32.0255 183.163 31.7882C183.389 31.5509 183.505 31.2704 183.505 30.9413V28.1068C183.505 27.7778 183.389 27.4946 183.163 27.2572C182.937 27.0199 182.669 26.9012 182.353 26.9012ZM174.838 25.7254C174.964 25.2965 175.059 24.9028 175.121 24.5387C175.188 24.1746 175.242 23.7269 175.288 23.1902C175.334 22.6508 175.365 22.2058 175.381 21.8525C175.391 21.4992 175.409 20.9921 175.424 20.326C175.445 19.6625 175.46 19.142 175.468 18.7671H179.46V26.9012H174.388C174.563 26.5425 174.715 26.1515 174.838 25.7254ZM194.379 16.5664C194.181 16.4288 193.962 16.3641 193.741 16.3641C193.368 16.3641 193.001 16.5583 192.779 16.9089L189.467 22.168L185.794 16.8603C185.568 16.5421 185.218 16.3641 184.858 16.3641C184.621 16.3641 184.385 16.4369 184.182 16.596C183.67 16.9871 183.554 17.745 183.93 18.2817L188.114 24.3202L186.152 27.4299C185.799 27.9854 185.943 28.7379 186.473 29.1074C186.671 29.2395 186.89 29.3043 187.111 29.3043C187.481 29.3043 187.847 29.1128 188.073 28.7622L190.431 25.0241C190.442 25.008 190.457 24.9972 190.467 24.9783L190.48 24.9594C190.485 24.954 190.485 24.9486 190.49 24.9432L190.496 24.9297C190.49 24.9351 190.488 24.9432 190.485 24.9486L190.48 24.954C190.47 24.9648 190.465 24.9729 190.46 24.981C190.462 24.9756 190.467 24.9702 190.472 24.9594L190.485 24.9486C190.488 24.9432 190.49 24.9351 190.493 24.9297H190.496L194.706 18.2412C195.058 17.6829 194.909 16.9332 194.379 16.5664ZM213.522 26.8931H211.755V17.575C211.755 16.9089 211.235 16.3668 210.6 16.3668C209.962 16.3668 209.448 16.9089 209.448 17.575V26.8931H205.32V17.575C205.32 16.9089 204.805 16.3668 204.165 16.3668C203.53 16.3668 203.013 16.9089 203.013 17.575V26.8931H198.885V17.575C198.885 16.9089 198.371 16.3668 197.73 16.3668C197.095 16.3668 196.578 16.9089 196.578 17.575V28.0825C196.578 28.0906 196.578 28.096 196.578 28.1041C196.578 28.773 197.095 29.315 197.73 29.315H212.367V30.9198C212.367 31.5913 212.884 32.1307 213.522 32.1307C214.159 32.1307 214.674 31.5913 214.674 30.9198V28.1041C214.674 27.4352 214.159 26.8931 213.522 26.8931ZM224.174 18.7779C224.815 18.7779 225.329 18.2358 225.329 17.5697C225.329 16.8981 224.815 16.3587 224.174 16.3587H217.482C217.284 16.3587 217.096 16.4126 216.934 16.5043C216.868 16.5421 216.806 16.5852 216.747 16.6338C216.693 16.685 216.639 16.739 216.592 16.801C216.425 17.0087 216.33 17.2757 216.33 17.5697V28.0933C216.33 28.3873 216.43 28.657 216.592 28.8647C216.639 28.924 216.693 28.9806 216.747 29.0292C216.806 29.0777 216.868 29.1209 216.934 29.1586C217.096 29.2503 217.284 29.3043 217.482 29.3043H224.174C224.815 29.3043 225.329 28.7649 225.329 28.0933C225.329 27.4272 224.815 26.8851 224.174 26.8851H218.637V24.0424H223.194C223.83 24.0424 224.349 23.5003 224.349 22.8315C224.349 22.1653 223.83 21.6232 223.194 21.6232H218.637V18.7779H224.174ZM235.709 17.5481C235.709 16.8819 235.195 16.3398 234.557 16.3398H228.613C227.975 16.3398 227.461 16.8819 227.461 17.5481C227.461 17.5508 227.461 17.5535 227.461 17.5589C227.461 17.5616 227.461 17.567 227.461 17.5697V28.096C227.461 28.7649 227.975 29.3043 228.613 29.3043C229.251 29.3043 229.768 28.7649 229.768 28.096V18.7563H234.557C235.195 18.7563 235.709 18.2169 235.709 17.5481ZM242.465 16C242.463 16 242.463 16 242.463 16C238.857 16 235.925 19.0773 235.925 22.8558C235.925 26.6342 238.857 29.7115 242.463 29.7115C246.066 29.7115 249 26.6342 249 22.8558C249 19.0773 246.066 16.0027 242.465 16ZM242.463 27.2896C240.13 27.2896 238.232 25.2992 238.232 22.8558C238.232 20.4123 240.128 18.4219 242.463 18.4219C244.793 18.4219 246.691 20.4123 246.691 22.8558C246.691 25.2992 244.793 27.2896 242.463 27.2896Z" fill="white"/>
<path d="M68.1878 35.1193C68.679 35.1193 69.1188 35.2406 69.5148 35.4834C69.9109 35.7261 70.2221 36.0632 70.4484 36.4947C70.6748 36.9262 70.7905 37.4063 70.7905 37.9349C70.7905 38.4635 70.6748 38.9409 70.4484 39.3724C70.2221 39.8039 69.9109 40.1411 69.5148 40.3838C69.1188 40.6265 68.679 40.7479 68.1878 40.7479C67.7917 40.7479 67.4239 40.6832 67.0896 40.5537C66.7527 40.4242 66.4697 40.2328 66.2383 39.9792L66.48 39.7095C66.9095 40.1545 67.4728 40.3757 68.1749 40.3757C68.5761 40.3757 68.9439 40.2759 69.2782 40.0736C69.61 39.8741 69.8749 39.5936 70.0755 39.2376C70.2735 38.8816 70.3816 38.4824 70.397 38.0455H67.5319V37.703H70.3893C70.3584 37.2823 70.2427 36.902 70.0421 36.5675C69.8389 36.2304 69.5766 35.9688 69.2499 35.7773C68.9259 35.5858 68.5658 35.4914 68.1749 35.4914C67.4831 35.4914 66.9173 35.7126 66.48 36.1576L66.2383 35.896C66.4697 35.6425 66.7527 35.4483 67.0896 35.3188C67.4239 35.1867 67.7917 35.1193 68.1878 35.1193ZM73.8819 38.0779H72.6114V40.7074H72.2256V35.1597H72.6114V37.7111H73.8896L75.7876 35.1597H76.2171L74.1905 37.8621L76.3534 40.7074H75.9008L73.8819 38.0779ZM79.5606 40.7479C79.0411 40.7479 78.5704 40.6265 78.1538 40.3784C77.7345 40.133 77.4053 39.7958 77.1662 39.3697C76.927 38.9409 76.8061 38.4635 76.8061 37.9349C76.8061 37.4063 76.927 36.9262 77.1662 36.5001C77.4053 36.0713 77.7345 35.7342 78.1538 35.4888C78.5704 35.2433 79.0411 35.1193 79.5606 35.1193C80.0775 35.1193 80.5482 35.2406 80.9648 35.4834C81.384 35.7261 81.7132 36.0632 81.9524 36.492C82.1916 36.9182 82.3125 37.4009 82.3125 37.9349C82.3125 38.4689 82.1916 38.949 81.9524 39.3778C81.7132 39.8039 81.384 40.1411 80.9648 40.3838C80.5482 40.6265 80.0775 40.7479 79.5606 40.7479ZM79.5606 40.3757C80.0029 40.3757 80.4041 40.2705 80.7616 40.0575C81.1191 39.8471 81.402 39.5558 81.6078 39.1836C81.8161 38.8087 81.919 38.3934 81.919 37.9349C81.919 37.4737 81.8161 37.0584 81.6078 36.6862C81.402 36.3113 81.1191 36.0201 80.7616 35.8097C80.4041 35.5966 80.0029 35.4914 79.5606 35.4914C79.1156 35.4914 78.7144 35.5966 78.3544 35.8097C77.9943 36.0201 77.7088 36.3113 77.5031 36.6862C77.2973 37.0584 77.1944 37.4737 77.1944 37.9349C77.1944 38.3934 77.2973 38.8087 77.5031 39.1836C77.7088 39.5558 77.9943 39.8471 78.3544 40.0575C78.7144 40.2705 79.1156 40.3757 79.5606 40.3757ZM86.0082 40.7479C85.4887 40.7479 85.0206 40.6265 84.6066 40.3838C84.1899 40.1411 83.8633 39.8039 83.6241 39.3778C83.3849 38.949 83.2641 38.4689 83.2641 37.9349C83.2641 37.4009 83.3849 36.9182 83.6241 36.492C83.8633 36.0632 84.1899 35.7261 84.6066 35.4834C85.0206 35.2406 85.4887 35.1193 86.0082 35.1193C86.3915 35.1193 86.7438 35.184 87.0679 35.3134C87.3893 35.4429 87.6645 35.6344 87.8909 35.8879L87.6491 36.1495C87.2247 35.7126 86.6847 35.4914 86.0237 35.4914C85.5813 35.4914 85.1775 35.5966 84.8149 35.8097C84.4523 36.0201 84.1668 36.3113 83.9585 36.6862C83.7527 37.0584 83.6498 37.4737 83.6498 37.9349C83.6498 38.3934 83.7527 38.8087 83.9585 39.1836C84.1668 39.5558 84.4523 39.8471 84.8149 40.0575C85.1775 40.2705 85.5813 40.3757 86.0237 40.3757C86.6795 40.3757 87.2196 40.1545 87.6491 39.7095L87.8909 39.9712C87.6645 40.2247 87.3893 40.4189 87.0627 40.551C86.7387 40.6832 86.3863 40.7479 86.0082 40.7479ZM89.1382 35.1597H89.524V40.0278L93.1297 35.1597H93.4692V40.7074H93.0835V35.8475L89.4777 40.7074H89.1382V35.1597ZM97.6434 40.7479C97.1239 40.7479 96.6558 40.6265 96.2417 40.3838C95.8251 40.1411 95.4984 39.8039 95.2593 39.3778C95.0175 38.949 94.8992 38.4689 94.8992 37.9349C94.8992 37.4009 95.0175 36.9182 95.2593 36.492C95.4984 36.0632 95.8251 35.7261 96.2417 35.4834C96.6558 35.2406 97.1239 35.1193 97.6434 35.1193C98.0266 35.1193 98.3789 35.184 98.703 35.3134C99.0245 35.4429 99.2997 35.6344 99.526 35.8879L99.2842 36.1495C98.8599 35.7126 98.3198 35.4914 97.6588 35.4914C97.2139 35.4914 96.8127 35.5966 96.45 35.8097C96.0874 36.0201 95.8019 36.3113 95.5936 36.6862C95.3879 37.0584 95.285 37.4737 95.285 37.9349C95.285 38.3934 95.3879 38.8087 95.5936 39.1836C95.8019 39.5558 96.0874 39.8471 96.45 40.0575C96.8127 40.2705 97.2139 40.3757 97.6588 40.3757C98.3146 40.3757 98.8547 40.1545 99.2842 39.7095L99.526 39.9712C99.2997 40.2247 99.0245 40.4189 98.6979 40.551C98.3738 40.6832 98.0214 40.7479 97.6434 40.7479ZM104.024 35.5238H102.118V40.7074H101.733V35.5238H99.8295V35.1597H104.024V35.5238ZM108.705 40.3433V40.7074H105.053V35.1597H108.592V35.5238H105.439V37.7111H108.257V38.0698H105.439V40.3433H108.705ZM114.993 40.7074L114.985 35.9607L112.771 39.9712H112.583L110.366 35.9769V40.7074H109.988V35.1597H110.315L112.681 39.4479L115.047 35.1597H115.364L115.371 40.7074H114.993ZM120.626 39.1459H117.557L116.884 40.7074H116.469L118.902 35.1597H119.288L121.724 40.7074H121.307L120.626 39.1459ZM120.484 38.8061L119.093 35.602L117.709 38.8061H120.484ZM126.055 35.1193C126.543 35.1193 126.986 35.2406 127.382 35.4834C127.778 35.7261 128.089 36.0632 128.316 36.4947C128.542 36.9262 128.655 37.4063 128.655 37.9349C128.655 38.4635 128.542 38.9409 128.316 39.3724C128.089 39.8039 127.778 40.1411 127.382 40.3838C126.986 40.6265 126.543 40.7479 126.055 40.7479C125.656 40.7479 125.291 40.6832 124.954 40.5537C124.62 40.4242 124.337 40.2328 124.105 39.9792L124.347 39.7095C124.774 40.1545 125.34 40.3757 126.039 40.3757C126.443 40.3757 126.811 40.2759 127.143 40.0736C127.477 39.8741 127.742 39.5936 127.943 39.2376C128.141 38.8816 128.249 38.4824 128.264 38.0455H125.396V37.703H128.256C128.225 37.2823 128.11 36.902 127.907 36.5675C127.706 36.2304 127.441 35.9688 127.117 35.7773C126.793 35.5858 126.433 35.4914 126.039 35.4914C125.35 35.4914 124.784 35.7126 124.347 36.1576L124.105 35.896C124.337 35.6425 124.62 35.4483 124.954 35.3188C125.291 35.1867 125.656 35.1193 126.055 35.1193ZM135.604 37.9349C135.604 38.4204 135.491 38.8411 135.265 39.1944C135.036 39.5477 134.712 39.8228 134.285 40.0143C133.858 40.2085 133.351 40.3083 132.762 40.3191V40.8827H132.392V40.3191C131.8 40.3083 131.294 40.2085 130.867 40.0143C130.442 39.8228 130.116 39.5477 129.889 39.1944C129.661 38.8411 129.547 38.4204 129.547 37.9349C129.547 37.4414 129.661 37.0206 129.889 36.6646C130.116 36.3113 130.442 36.0389 130.867 35.8448C131.294 35.6506 131.8 35.5508 132.392 35.54V34.9844H132.762V35.54C133.652 35.567 134.349 35.7881 134.851 36.2062C135.352 36.6242 135.604 37.1986 135.604 37.9349ZM132.762 39.9873C133.536 39.9604 134.141 39.7689 134.575 39.4129C135.01 39.0569 135.226 38.5606 135.226 37.9268C135.226 37.2957 135.01 36.8049 134.575 36.4462C134.141 36.0902 133.536 35.8987 132.762 35.8717V39.9873ZM129.925 37.9349C129.925 38.5687 130.142 39.0623 130.576 39.4156C131.011 39.7716 131.615 39.9604 132.392 39.9873V35.8717C131.61 35.8987 131.003 36.0902 130.571 36.4462C130.142 36.8049 129.925 37.2984 129.925 37.9349ZM142.476 37.9349C142.476 38.4204 142.363 38.8411 142.137 39.1944C141.91 39.5477 141.584 39.8228 141.157 40.0143C140.73 40.2085 140.223 40.3083 139.634 40.3191V40.8827H139.264V40.3191C138.672 40.3083 138.166 40.2085 137.739 40.0143C137.314 39.8228 136.988 39.5477 136.762 39.1944C136.533 38.8411 136.419 38.4204 136.419 37.9349C136.419 37.4414 136.533 37.0206 136.762 36.6646C136.988 36.3113 137.314 36.0389 137.739 35.8448C138.166 35.6506 138.672 35.5508 139.264 35.54V34.9844H139.634V35.54C140.524 35.567 141.221 35.7881 141.723 36.2062C142.224 36.6242 142.476 37.1986 142.476 37.9349ZM139.634 39.9873C140.408 39.9604 141.015 39.7689 141.447 39.4129C141.882 39.0569 142.098 38.5606 142.098 37.9268C142.098 37.2957 141.882 36.8049 141.447 36.4462C141.015 36.0902 140.408 35.8987 139.634 35.8717V39.9873ZM136.798 37.9349C136.798 38.5687 137.016 39.0623 137.448 39.4156C137.883 39.7716 138.487 39.9604 139.264 39.9873V35.8717C138.482 35.8987 137.875 36.0902 137.446 36.4462C137.014 36.8049 136.798 37.2984 136.798 37.9349ZM147.489 40.3433V40.7074H143.837V35.1597H147.376V35.5238H144.223V37.7111H147.044V38.0698H144.223V40.3433H147.489ZM150.428 38.0779H149.16V40.7074H148.775V35.1597H149.16V37.7111H150.436L152.334 35.1597H152.766L150.74 37.8621L152.903 40.7074H152.447L150.428 38.0779ZM157.12 35.5238H155.215V40.7074H154.829V35.5238H152.923V35.1597H157.12V35.5238ZM158.149 35.1597H158.535V40.0278L162.141 35.1597H162.48V40.7074H162.094V35.8475L158.489 40.7074H158.149V35.1597ZM167.364 37.854C167.758 37.9241 168.053 38.0752 168.254 38.3071C168.452 38.539 168.552 38.8492 168.552 39.2349C168.552 39.7095 168.393 40.0736 168.074 40.3272C167.758 40.5807 167.287 40.7074 166.662 40.7074H164.386V35.1597H166.518C167.071 35.1597 167.503 35.2811 167.814 35.5238C168.125 35.7665 168.28 36.1145 168.28 36.5702C168.28 36.8939 168.197 37.1609 168.038 37.3793C167.876 37.5951 167.652 37.7542 167.364 37.854ZM164.772 37.7273H166.51C166.953 37.7273 167.295 37.6329 167.531 37.4414C167.768 37.2526 167.886 36.9775 167.886 36.6188C167.886 36.252 167.768 35.9769 167.531 35.7854C167.295 35.5939 166.953 35.4995 166.51 35.4995H164.772V37.7273ZM166.67 40.3676C167.668 40.3676 168.167 39.9819 168.167 39.2106C168.167 38.8141 168.041 38.5229 167.789 38.3368C167.537 38.1534 167.164 38.0617 166.67 38.0617H164.772V40.3676H166.67ZM174.365 35.1597V40.7074H173.979V38.0698H170.443V40.7074H170.057V35.1597H170.443V37.7111H173.979V35.1597H174.365ZM178.539 40.7479C178.019 40.7479 177.551 40.6265 177.132 40.3784C176.713 40.133 176.386 39.7958 176.145 39.3697C175.905 38.9409 175.787 38.4635 175.787 37.9349C175.787 37.4063 175.905 36.9262 176.145 36.5001C176.386 36.0713 176.713 35.7342 177.132 35.4888C177.551 35.2433 178.019 35.1193 178.539 35.1193C179.058 35.1193 179.527 35.2406 179.946 35.4834C180.362 35.7261 180.692 36.0632 180.931 36.492C181.17 36.9182 181.291 37.4009 181.291 37.9349C181.291 38.4689 181.17 38.949 180.931 39.3778C180.692 39.8039 180.362 40.1411 179.946 40.3838C179.527 40.6265 179.058 40.7479 178.539 40.7479ZM178.539 40.3757C178.981 40.3757 179.383 40.2705 179.74 40.0575C180.098 39.8471 180.38 39.5558 180.589 39.1836C180.794 38.8087 180.897 38.3934 180.897 37.9349C180.897 37.4737 180.794 37.0584 180.589 36.6862C180.38 36.3113 180.098 36.0201 179.74 35.8097C179.383 35.5966 178.981 35.4914 178.539 35.4914C178.094 35.4914 177.693 35.5966 177.333 35.8097C176.973 36.0201 176.69 36.3113 176.481 36.6862C176.276 37.0584 176.173 37.4737 176.173 37.9349C176.173 38.3934 176.276 38.8087 176.481 39.1836C176.69 39.5558 176.973 39.8471 177.333 40.0575C177.693 40.2705 178.094 40.3757 178.539 40.3757ZM185.992 35.5238H183.104V40.7074H182.721V35.1597H185.992V35.5238ZM188.518 40.7479C187.998 40.7479 187.53 40.6265 187.111 40.3784C186.694 40.133 186.365 39.7958 186.126 39.3697C185.887 38.9409 185.766 38.4635 185.766 37.9349C185.766 37.4063 185.887 36.9262 186.126 36.5001C186.365 36.0713 186.694 35.7342 187.111 35.4888C187.53 35.2433 187.998 35.1193 188.518 35.1193C189.037 35.1193 189.505 35.2406 189.925 35.4834C190.344 35.7261 190.67 36.0632 190.912 36.492C191.151 36.9182 191.27 37.4009 191.27 37.9349C191.27 38.4689 191.151 38.949 190.912 39.3778C190.67 39.8039 190.344 40.1411 189.925 40.3838C189.505 40.6265 189.037 40.7479 188.518 40.7479ZM188.518 40.3757C188.963 40.3757 189.361 40.2705 189.721 40.0575C190.079 39.8471 190.359 39.5558 190.568 39.1836C190.773 38.8087 190.876 38.3934 190.876 37.9349C190.876 37.4737 190.773 37.0584 190.568 36.6862C190.359 36.3113 190.079 36.0201 189.721 35.8097C189.361 35.5966 188.963 35.4914 188.518 35.4914C188.075 35.4914 187.672 35.5966 187.312 35.8097C186.952 36.0201 186.669 36.3113 186.463 36.6862C186.255 37.0584 186.152 37.4737 186.152 37.9349C186.152 38.3934 186.255 38.8087 186.463 39.1836C186.669 39.5558 186.952 39.8471 187.312 40.0575C187.672 40.2705 188.075 40.3757 188.518 40.3757ZM198.648 35.1597L196.208 39.901C196.051 40.2058 195.866 40.435 195.652 40.5807C195.436 40.729 195.21 40.8045 194.968 40.8045C194.78 40.8045 194.58 40.756 194.361 40.6616L194.482 40.3272C194.654 40.4027 194.816 40.4404 194.968 40.4404C195.326 40.4404 195.621 40.2301 195.858 39.812L196.041 39.4884L193.87 35.1597H194.294L196.251 39.1081L198.247 35.1597H198.648ZM203.957 35.1597V40.7074H203.571V35.5238H199.988V40.7074H199.603V35.1597H203.957ZM207.761 35.1597C208.424 35.1597 208.946 35.3242 209.324 35.6533C209.702 35.985 209.893 36.4435 209.893 37.0287C209.893 37.6113 209.702 38.0671 209.324 38.3988C208.946 38.7278 208.424 38.8924 207.761 38.8924H206.248V40.7074H205.863V35.1597H207.761ZM207.761 38.5283C208.324 38.5283 208.756 38.3988 209.052 38.1399C209.35 37.881 209.499 37.5115 209.499 37.0287C209.499 36.5487 209.35 36.1765 209.052 35.9149C208.756 35.6533 208.324 35.5238 207.761 35.5238H206.248V38.5283H207.761ZM214.208 39.1459H211.137L210.466 40.7074H210.049L212.485 35.1597H212.871L215.304 40.7074H214.89L214.208 39.1459ZM214.064 38.8061L212.673 35.602L211.289 38.8061H214.064ZM219.38 37.854C219.771 37.9241 220.07 38.0752 220.268 38.3071C220.466 38.539 220.566 38.8492 220.566 39.2349C220.566 39.7095 220.406 40.0736 220.09 40.3272C219.771 40.5807 219.301 40.7074 218.676 40.7074H216.399V35.1597H218.532C219.087 35.1597 219.519 35.2811 219.83 35.5238C220.139 35.7665 220.293 36.1145 220.293 36.5702C220.293 36.8939 220.214 37.1609 220.052 37.3793C219.892 37.5951 219.666 37.7542 219.38 37.854ZM216.785 37.7273H218.524C218.969 37.7273 219.308 37.6329 219.545 37.4414C219.781 37.2526 219.9 36.9775 219.9 36.6188C219.9 36.252 219.781 35.9769 219.545 35.7854C219.308 35.5939 218.969 35.4995 218.524 35.4995H216.785V37.7273ZM218.683 40.3676C219.681 40.3676 220.18 39.9819 220.18 39.2106C220.18 38.8141 220.054 38.5229 219.802 38.3368C219.55 38.1534 219.177 38.0617 218.683 38.0617H216.785V40.3676H218.683ZM226.07 35.1597V40.7074H225.684V35.5238H222.947L222.881 37.56C222.85 38.3233 222.788 38.9328 222.695 39.3967C222.6 39.8579 222.464 40.2004 222.281 40.4242C222.101 40.6454 221.862 40.756 221.564 40.756C221.427 40.756 221.301 40.7398 221.186 40.7074L221.232 40.3352C221.317 40.3568 221.402 40.3676 221.481 40.3676C221.713 40.3676 221.901 40.2732 222.045 40.0871C222.189 39.8983 222.297 39.6017 222.374 39.1944C222.449 38.7872 222.5 38.2451 222.526 37.5681L222.6 35.1597H226.07ZM231.627 40.3433V40.7074H227.975V35.1597H231.514V35.5238H228.361V37.7111H231.18V38.0698H228.361V40.3433H231.627ZM237.221 35.1597V40.7074H236.836V38.0698H233.297V40.7074H232.913V35.1597H233.297V37.7111H236.836V35.1597H237.221ZM239.127 35.1597H239.513V40.0278L243.119 35.1597H243.458V40.7074H243.072V35.8475L239.467 40.7074H239.127V35.1597ZM248.993 35.1597V40.7074H248.607V38.9652H246.92C246.791 38.9652 246.668 38.9571 246.549 38.9409L245.379 40.7074H244.963L246.187 38.8681C245.793 38.7521 245.492 38.5417 245.282 38.2397C245.068 37.9349 244.963 37.5519 244.963 37.0935C244.963 36.4812 245.145 36.0039 245.51 35.6668C245.876 35.3269 246.372 35.1597 246.997 35.1597H248.993ZM245.356 37.0854C245.356 37.5762 245.492 37.9538 245.765 38.2181C246.038 38.4824 246.434 38.6146 246.958 38.6146H248.607V35.5238H247.028C246.493 35.5238 246.081 35.656 245.791 35.923C245.5 36.19 245.356 36.5783 245.356 37.0854Z" fill="white"/>
<path d="M9.00293 40.9355C10.478 42.8851 12.1852 44.5926 14.124 46.0566L11.0107 48.8633C10.9909 48.7183 10.9121 48.3507 10.5459 48.1064C10.1602 47.8492 9.771 47.9333 9.60938 47.9873C9.52405 48.0158 9.44892 48.0529 9.38574 48.0889L9.24219 48.1816C8.66303 48.5986 6.71223 50.0065 3.39258 52.4033L5.72266 48.6924L5.72168 48.6914C5.766 48.6214 5.83465 48.5046 5.87891 48.3564C5.9154 48.2342 6.00947 47.8435 5.74805 47.4561C5.47246 47.0477 5.04991 47.0003 4.89844 46.9961C4.80581 46.9936 4.72106 47.0031 4.65039 47.0156L9.00293 40.9355ZM50.6299 19.6152C51.6773 25.4332 50.4646 31.527 47.3262 36.4268L46.999 36.9229C41.3665 45.2237 31.302 48.4401 22.3682 45.1211C34.9707 41.2067 45.0505 32.2045 50.6299 19.6152ZM33.2012 14.6543C33.7279 14.6284 34.1912 14.7409 34.5635 14.9453L34.7178 15.0381C34.8197 15.1068 34.9068 15.1767 34.9805 15.248L35.0801 15.3477C35.2588 15.54 35.4126 15.7791 35.5342 16.0713L35.5918 16.2217C35.7018 16.5476 35.7731 16.9468 35.7959 17.4102L35.7227 18.5635C35.6705 19.3776 35.4712 20.2266 35.1465 21.1465C34.5729 22.7657 33.6527 24.4956 32.4619 26.168L32.4609 26.1689C32.0325 26.7728 31.5646 27.3699 31.0752 27.9434C30.22 28.942 29.2993 29.862 28.3496 30.6689C27.0719 31.753 25.7719 32.6057 24.5547 33.1738C23.2346 33.7869 22.0908 34.0293 21.2002 33.9707L21.1924 33.9697H21.1846C20.5944 33.9399 20.1262 33.7627 19.7725 33.4863L19.6279 33.3623C19.4977 33.2368 19.38 33.0917 19.2773 32.9268L19.2754 32.9238C19.0241 32.5227 18.8538 32.0027 18.7969 31.3428L18.8369 31.2656L18.8135 30.9805C18.7519 30.2584 18.8414 29.5058 19.0576 28.6543C19.3199 27.7272 19.709 26.6808 20.2295 25.6172L20.2314 25.6123C21.051 23.9167 22.1806 22.2128 23.5176 20.6514L23.5186 20.6504C24.4947 19.5069 25.5623 18.4668 26.6562 17.583L26.6553 17.582C27.3768 17.0005 28.1039 16.491 28.8125 16.0713C29.9683 15.3871 31.052 14.9431 32.001 14.7422C32.4925 14.6909 32.8366 14.6553 33.1523 14.6553H33.1768L33.2012 14.6543ZM21.5664 2.69141C24.7794 1.36127 28.0848 0.862371 31.4951 1.19434C24.2317 5.17197 18.0926 11.1689 13.9219 18.6445V18.6455C11.6524 22.714 10.0579 27.2492 9.48047 31.9521C8.71624 29.8827 8.2584 27.7148 8.10938 25.4443C7.84106 21.3534 8.53388 17.3518 10.2432 13.7402C12.6208 8.71627 16.6155 4.73762 21.5654 2.69141H21.5664ZM27.4277 19.2871C24.8602 19.2872 22.8691 21.4623 22.8691 24.0332C22.8692 26.604 24.8603 28.7792 27.4277 28.7793C29.9923 28.7793 31.9863 26.6046 31.9863 24.0332C31.9863 21.4618 29.9924 19.2871 27.4277 19.2871ZM43.6562 1.11523C45.0992 0.968103 46.8639 0.989414 48.292 1.03125H48.2939C48.8217 1.04555 49.4021 1.09729 50.0391 1.18262C50.165 2.75628 50.2166 4.04585 50.1914 5.05762C50.0162 11.8133 48.2197 17.8905 44.8057 23.3096C44.8771 22.7019 44.934 22.0829 44.9707 21.4521C45.0517 20.0618 45.0629 18.8653 44.9971 17.8672C44.7994 14.7759 43.7264 12.086 41.7705 9.83398L41.749 9.81055L41.4902 9.53906C38.7824 6.78537 35.0494 5.51293 31.3223 5.94922C30.5937 6.03471 29.88 6.16645 29.1807 6.3418C33.5248 3.39696 38.3468 1.65817 43.6562 1.11523Z" fill="url(#paint0_linear_743_1703)" fill-opacity="0.5"/>
<path d="M9.00293 40.9355C10.478 42.8851 12.1852 44.5926 14.124 46.0566L11.0107 48.8633C10.9909 48.7183 10.9121 48.3507 10.5459 48.1064C10.1602 47.8492 9.771 47.9333 9.60938 47.9873C9.52405 48.0158 9.44892 48.0529 9.38574 48.0889L9.24219 48.1816C8.66303 48.5986 6.71223 50.0065 3.39258 52.4033L5.72266 48.6924L5.72168 48.6914C5.766 48.6214 5.83465 48.5046 5.87891 48.3564C5.9154 48.2342 6.00947 47.8435 5.74805 47.4561C5.47246 47.0477 5.04991 47.0003 4.89844 46.9961C4.80581 46.9936 4.72106 47.0031 4.65039 47.0156L9.00293 40.9355ZM50.6299 19.6152C51.6773 25.4332 50.4646 31.527 47.3262 36.4268L46.999 36.9229C41.3665 45.2237 31.302 48.4401 22.3682 45.1211C34.9707 41.2067 45.0505 32.2045 50.6299 19.6152ZM33.2012 14.6543C33.7279 14.6284 34.1912 14.7409 34.5635 14.9453L34.7178 15.0381C34.8197 15.1068 34.9068 15.1767 34.9805 15.248L35.0801 15.3477C35.2588 15.54 35.4126 15.7791 35.5342 16.0713L35.5918 16.2217C35.7018 16.5476 35.7731 16.9468 35.7959 17.4102L35.7227 18.5635C35.6705 19.3776 35.4712 20.2266 35.1465 21.1465C34.5729 22.7657 33.6527 24.4956 32.4619 26.168L32.4609 26.1689C32.0325 26.7728 31.5646 27.3699 31.0752 27.9434C30.22 28.942 29.2993 29.862 28.3496 30.6689C27.0719 31.753 25.7719 32.6057 24.5547 33.1738C23.2346 33.7869 22.0908 34.0293 21.2002 33.9707L21.1924 33.9697H21.1846C20.5944 33.9399 20.1262 33.7627 19.7725 33.4863L19.6279 33.3623C19.4977 33.2368 19.38 33.0917 19.2773 32.9268L19.2754 32.9238C19.0241 32.5227 18.8538 32.0027 18.7969 31.3428L18.8369 31.2656L18.8135 30.9805C18.7519 30.2584 18.8414 29.5058 19.0576 28.6543C19.3199 27.7272 19.709 26.6808 20.2295 25.6172L20.2314 25.6123C21.051 23.9167 22.1806 22.2128 23.5176 20.6514L23.5186 20.6504C24.4947 19.5069 25.5623 18.4668 26.6562 17.583L26.6553 17.582C27.3768 17.0005 28.1039 16.491 28.8125 16.0713C29.9683 15.3871 31.052 14.9431 32.001 14.7422C32.4925 14.6909 32.8366 14.6553 33.1523 14.6553H33.1768L33.2012 14.6543ZM21.5664 2.69141C24.7794 1.36127 28.0848 0.862371 31.4951 1.19434C24.2317 5.17197 18.0926 11.1689 13.9219 18.6445V18.6455C11.6524 22.714 10.0579 27.2492 9.48047 31.9521C8.71624 29.8827 8.2584 27.7148 8.10938 25.4443C7.84106 21.3534 8.53388 17.3518 10.2432 13.7402C12.6208 8.71627 16.6155 4.73762 21.5654 2.69141H21.5664ZM27.4277 19.2871C24.8602 19.2872 22.8691 21.4623 22.8691 24.0332C22.8692 26.604 24.8603 28.7792 27.4277 28.7793C29.9923 28.7793 31.9863 26.6046 31.9863 24.0332C31.9863 21.4618 29.9924 19.2871 27.4277 19.2871ZM43.6562 1.11523C45.0992 0.968103 46.8639 0.989414 48.292 1.03125H48.2939C48.8217 1.04555 49.4021 1.09729 50.0391 1.18262C50.165 2.75628 50.2166 4.04585 50.1914 5.05762C50.0162 11.8133 48.2197 17.8905 44.8057 23.3096C44.8771 22.7019 44.934 22.0829 44.9707 21.4521C45.0517 20.0618 45.0629 18.8653 44.9971 17.8672C44.7994 14.7759 43.7264 12.086 41.7705 9.83398L41.749 9.81055L41.4902 9.53906C38.7824 6.78537 35.0494 5.51293 31.3223 5.94922C30.5937 6.03471 29.88 6.16645 29.1807 6.3418C33.5248 3.39696 38.3468 1.65817 43.6562 1.11523Z" stroke="url(#paint1_linear_743_1703)" stroke-width="2" style="mix-blend-mode:overlay"/>
<defs>
<linearGradient id="paint0_linear_743_1703" x1="2.9193" y1="3.675" x2="59.3853" y2="0.155744" gradientUnits="userSpaceOnUse">
<stop stop-color="white" stop-opacity="0.4"/>
<stop offset="1" stop-color="white" stop-opacity="0.07"/>
</linearGradient>
<linearGradient id="paint1_linear_743_1703" x1="2.8" y1="8.69194" x2="23.0613" y2="49.6196" gradientUnits="userSpaceOnUse">
<stop stop-color="white" stop-opacity="0.5"/>
<stop offset="0.352567" stop-color="white" stop-opacity="0"/>
<stop offset="0.646925" stop-color="white" stop-opacity="0"/>
<stop offset="1" stop-color="white" stop-opacity="0.54"/>
</linearGradient>
</defs>
</svg>
