<svg width="25" height="25" viewBox="0 0 25 25" fill="none" xmlns="http://www.w3.org/2000/svg">
<path d="M4.16547 10.7325L10.2731 15.3446L10.2751 15.3463C10.9533 15.8437 11.2926 16.0925 11.6642 16.1886C11.9927 16.2736 12.338 16.2736 12.6664 16.1886C13.0384 16.0924 13.3787 15.8428 14.058 15.3446L20.1655 10.7325M19.9656 9.77189L14.3666 5.28902C13.6714 4.7324 13.3235 4.45419 12.937 4.34371C12.5958 4.24623 12.2347 4.24106 11.891 4.32906C11.5015 4.42879 11.1463 4.69718 10.436 5.23433L4.435 9.77212C3.96927 10.1243 3.7367 10.3005 3.56879 10.523C3.42007 10.7202 3.30924 10.9431 3.24171 11.1806C3.16547 11.4488 3.16547 11.7408 3.16547 12.3247V18.5325C3.16547 19.6526 3.16547 20.213 3.38345 20.6408C3.5752 21.0171 3.88094 21.3229 4.25726 21.5146C4.68467 21.7324 5.24446 21.7324 6.36238 21.7324H17.9686C19.0865 21.7324 19.6455 21.7324 20.0729 21.5146C20.4492 21.3229 20.7559 21.0169 20.9477 20.6406C21.1655 20.2132 21.1655 19.6539 21.1655 18.536V12.2589C21.1655 11.7018 21.1655 11.4215 21.0942 11.1626C21.0306 10.9317 20.925 10.7141 20.7845 10.5201C20.6259 10.3012 20.4063 10.1247 19.9656 9.77189Z" stroke="white" stroke-width="2" stroke-linecap="round" stroke-linejoin="round"/>
</svg>
