<svg width="25" height="25" viewBox="0 0 25 25" fill="none" xmlns="http://www.w3.org/2000/svg">
<path d="M5.16547 10.6553C5.16547 15.5071 9.40994 19.5193 11.2887 21.0576C11.5575 21.2778 11.6936 21.3892 11.8942 21.4457C12.0504 21.4896 12.2803 21.4896 12.4365 21.4457C12.6374 21.3891 12.7725 21.2788 13.0424 21.0578C14.9211 19.5195 19.1654 15.5075 19.1654 10.6557C19.1654 8.8196 18.4279 7.05847 17.1152 5.76014C15.8024 4.46182 14.0221 3.73242 12.1655 3.73242C10.309 3.73242 8.52847 4.46193 7.21572 5.76025C5.90296 7.05858 5.16547 8.81916 5.16547 10.6553Z" stroke="white" stroke-width="2" stroke-linecap="round" stroke-linejoin="round"/>
<path d="M10.1655 9.73242C10.1655 10.837 11.0609 11.7324 12.1655 11.7324C13.27 11.7324 14.1655 10.837 14.1655 9.73242C14.1655 8.62785 13.27 7.73242 12.1655 7.73242C11.0609 7.73242 10.1655 8.62785 10.1655 9.73242Z" stroke="white" stroke-width="2" stroke-linecap="round" stroke-linejoin="round"/>
</svg>
