<svg width="15" height="13" viewBox="0 0 15 13" fill="none" xmlns="http://www.w3.org/2000/svg">
<path d="M0.585912 6.53292C0.582133 5.98459 1.39005 5.10156 2.35485 5.0949L12.8363 5.02263C13.8011 5.01597 14.4787 5.9846 14.4825 6.53292C14.4863 7.08125 13.8011 8.08963 12.8363 8.09629L2.35485 8.16856C1.39005 8.17522 0.589692 7.08124 0.585912 6.53292Z" fill="white"/>
<path d="M7.583 0.258885C8.54779 0.252232 9.31935 1.10258 9.32313 1.6509L9.32315 11.3763C9.32693 11.9246 8.54779 12.9329 7.583 12.9396C6.61821 12.9462 5.83311 11.9487 5.82933 11.4004L5.82932 1.675C5.82554 1.12667 6.61821 0.265538 7.583 0.258885Z" fill="white"/>
</svg>
