<svg width="19" height="27" viewBox="0 0 19 27" fill="none" xmlns="http://www.w3.org/2000/svg">
<path d="M5.76 9.26H0.72C0.72 3.68 4.14 0.259999 9.9 0.259999C14.94 0.259999 18.9 3.14 18.9 7.82C18.9 14.48 11.7 14.12 11.7 18.8H6.66V18.44C6.66 11.96 13.5 12.14 13.5 8.18C13.5 6.2 12.24 4.76 9.72 4.76C7.56 4.76 5.76 6.02 5.76 9.26ZM6.3 23.48C6.3 21.896 7.596 20.6 9.18 20.6C10.764 20.6 12.06 21.896 12.06 23.48C12.06 25.064 10.764 26.36 9.18 26.36C7.596 26.36 6.3 25.064 6.3 23.48Z" fill="white"/>
</svg>
