<svg width="114" height="21" viewBox="0 0 114 21" fill="none" xmlns="http://www.w3.org/2000/svg">
<path d="M3.848 20.408L6.416 12.776L0.224 8.624H7.808L10.52 0.439999L13.28 8.624H20.816L14.624 12.776L17.24 20.408L10.52 15.536L3.848 20.408ZM27.1271 20.408L29.6951 12.776L23.5031 8.624H31.0871L33.7991 0.439999L36.5591 8.624H44.0951L37.9031 12.776L40.5191 20.408L33.7991 15.536L27.1271 20.408ZM50.4061 20.408L52.9741 12.776L46.7821 8.624H54.3661L57.0781 0.439999L59.8381 8.624H67.3741L61.1821 12.776L63.7981 20.408L57.0781 15.536L50.4061 20.408ZM73.6852 20.408L76.2532 12.776L70.0612 8.624H77.6452L80.3572 0.439999L83.1172 8.624H90.6532L84.4612 12.776L87.0772 20.408L80.3572 15.536L73.6852 20.408ZM96.9642 20.408L99.5322 12.776L93.3402 8.624H100.924L103.636 0.439999L106.396 8.624H113.932L107.74 12.776L110.356 20.408L103.636 15.536L96.9642 20.408Z" fill="white"/>
</svg>
