<svg width="68" height="13" viewBox="0 0 68 13" fill="none" xmlns="http://www.w3.org/2000/svg">
<path opacity="0.35" d="M45.9456 1.35123L62.6116 1.35123C63.8082 1.35123 64.7786 2.3216 64.7786 3.51822V9.51822C64.7784 10.7147 63.8081 11.6842 62.6116 11.6842H45.9456C44.7491 11.6842 43.7788 10.7147 43.7786 9.51822V3.51822L43.7894 3.29654C43.9002 2.20388 44.8237 1.35123 45.9456 1.35123Z" stroke="white"/>
<path opacity="0.4" d="M66.2786 4.51822V8.51822C67.0833 8.17944 67.6066 7.39135 67.6066 6.51822C67.6066 5.64509 67.0833 4.857 66.2786 4.51822Z" fill="white"/>
<path d="M45.2786 3.95123C45.2786 3.34371 45.7711 2.85123 46.3786 2.85123L62.1786 2.85123C62.7861 2.85123 63.2786 3.34371 63.2786 3.95123V9.08456C63.2786 9.69207 62.7861 10.1846 62.1786 10.1846H46.3786C45.7711 10.1846 45.2786 9.69207 45.2786 9.08456V3.95123Z" fill="white"/>
<path fill-rule="evenodd" clip-rule="evenodd" d="M30.6091 3.12562C32.825 3.12572 34.9561 3.97716 36.5621 5.50396C36.683 5.62183 36.8763 5.62034 36.9954 5.50062L38.1514 4.33396C38.2117 4.27324 38.2453 4.19098 38.2448 4.1054C38.2443 4.01982 38.2098 3.93797 38.1487 3.87796C33.9336 -0.16159 27.2838 -0.16159 23.0687 3.87796C23.0077 3.93793 22.973 4.01975 22.9725 4.10533C22.9719 4.19091 23.0055 4.27319 23.0657 4.33396L24.2221 5.50062C24.3411 5.62053 24.5346 5.62201 24.6554 5.50396C26.2616 3.97706 28.393 3.12562 30.6091 3.12562ZM30.6091 6.92129C31.8266 6.92122 33.0006 7.37375 33.9031 8.19096C34.0251 8.30694 34.2174 8.30442 34.3364 8.18529L35.4911 7.01862C35.5519 6.95743 35.5856 6.87441 35.5847 6.78815C35.5839 6.70188 35.5485 6.61957 35.4864 6.55962C32.7382 4.00324 28.4823 4.00324 25.7341 6.55962C25.672 6.61957 25.6366 6.70192 25.6358 6.78822C25.635 6.87451 25.6688 6.95752 25.7297 7.01862L26.8841 8.18529C27.0031 8.30442 27.1953 8.30694 27.3174 8.19096C28.2193 7.37429 29.3924 6.92179 30.6091 6.92129ZM32.9221 9.47511C32.9238 9.56162 32.8898 9.64502 32.8281 9.70562L30.8307 11.7213C30.7722 11.7805 30.6924 11.8139 30.6091 11.8139C30.5258 11.8139 30.446 11.7805 30.3874 11.7213L28.3897 9.70562C28.328 9.64497 28.2941 9.56154 28.2959 9.47504C28.2977 9.38853 28.3352 9.30661 28.3994 9.24862C29.675 8.16974 31.5432 8.16974 32.8187 9.24862C32.8829 9.30666 32.9203 9.3886 32.9221 9.47511Z" fill="white"/>
<path fill-rule="evenodd" clip-rule="evenodd" d="M16.9454 1.18423H15.9454C15.3931 1.18423 14.9454 1.63195 14.9454 2.18423V10.8509C14.9454 11.4032 15.3931 11.8509 15.9454 11.8509H16.9454C17.4977 11.8509 17.9454 11.4032 17.9454 10.8509V2.18423C17.9454 1.63195 17.4977 1.18423 16.9454 1.18423ZM11.2788 3.51757H12.2788C12.8311 3.51757 13.2788 3.96528 13.2788 4.51757V10.8509C13.2788 11.4032 12.8311 11.8509 12.2788 11.8509H11.2788C10.7265 11.8509 10.2788 11.4032 10.2788 10.8509V4.51757C10.2788 3.96528 10.7265 3.51757 11.2788 3.51757ZM7.6121 5.8509H6.6121C6.05982 5.8509 5.6121 6.29862 5.6121 6.8509V10.8509C5.6121 11.4032 6.05982 11.8509 6.6121 11.8509H7.6121C8.16439 11.8509 8.6121 11.4032 8.6121 10.8509V6.8509C8.6121 6.29862 8.16439 5.8509 7.6121 5.8509ZM2.94543 7.8509H1.94543C1.39315 7.8509 0.945435 8.29862 0.945435 8.8509V10.8509C0.945435 11.4032 1.39315 11.8509 1.94543 11.8509H2.94543C3.49772 11.8509 3.94543 11.4032 3.94543 10.8509L3.94543 8.8509C3.94543 8.29862 3.49772 7.8509 2.94543 7.8509Z" fill="white"/>
</svg>
