<svg width="25" height="25" viewBox="0 0 25 25" fill="none" xmlns="http://www.w3.org/2000/svg">
<path d="M9.1654 6.73245L12.1654 3.73245M12.1654 3.73245L15.1654 6.73245M12.1654 3.73245V13.7325M7.16564 10.7325C6.23375 10.7325 5.76781 10.7325 5.40027 10.8847C4.91021 11.0877 4.52063 11.4773 4.31765 11.9673C4.16541 12.3349 4.16541 12.8006 4.16541 13.7325V18.5325C4.16541 19.6526 4.16541 20.2122 4.38339 20.64C4.57514 21.0164 4.88088 21.3229 5.2572 21.5147C5.68461 21.7325 6.2444 21.7325 7.36232 21.7325H16.969C18.0869 21.7325 18.6459 21.7325 19.0733 21.5147C19.4496 21.3229 19.7559 21.0164 19.9476 20.64C20.1654 20.2126 20.1654 19.6535 20.1654 18.5355V13.7325C20.1654 12.8006 20.1653 12.3349 20.0131 11.9673C19.8101 11.4773 19.4208 11.0877 18.9308 10.8847C18.5632 10.7325 18.0973 10.7325 17.1654 10.7325" stroke="white" stroke-width="2" stroke-linecap="round" stroke-linejoin="round"/>
</svg>
