<svg width="59" height="47" viewBox="0 0 59 47" fill="none" xmlns="http://www.w3.org/2000/svg">
<path d="M52.8838 0.252968C56.1975 0.252968 58.8838 2.93927 58.8838 6.25297V20.4014C57.1453 20.4015 55.7365 21.8104 55.7363 23.5489C55.7363 25.2331 57.0584 26.6089 58.7217 26.6934L58.8838 26.6973V40.2159C58.8838 43.5296 56.1975 46.2159 52.8838 46.2159H6.95801C3.64438 46.2158 0.958008 43.5295 0.958008 40.2159L0.958008 26.6973C2.6966 26.6972 4.10645 25.2875 4.10645 23.5489C4.10633 21.8647 2.78329 20.4898 1.12012 20.4053L0.958008 20.4014L0.958008 6.25297C0.95802 2.93933 3.64439 0.253063 6.95801 0.252968L52.8838 0.252968Z" fill="url(#paint0_linear_354_1474)" style="mix-blend-mode:overlay"/>
<mask id="path-2-inside-1_354_1474" fill="white">
<path d="M52.8838 0.252968C56.1975 0.252968 58.8838 2.93927 58.8838 6.25297V17.5489C58.8838 18.6208 58.6009 19.6262 58.1084 20.4971C56.9929 20.7797 56.1147 21.658 55.832 22.7735C54.9611 23.266 53.9558 23.5489 52.8838 23.5489H6.95801C5.88567 23.5488 4.87994 23.2664 4.00879 22.7735C3.72609 21.6581 2.84886 20.7797 1.7334 20.4971C1.24101 19.6263 0.958008 18.6207 0.958008 17.5489L0.958008 6.25297C0.958019 2.93933 3.64439 0.253063 6.95801 0.252968L52.8838 0.252968Z"/>
</mask>
<path d="M52.8838 0.252968C56.1975 0.252968 58.8838 2.93927 58.8838 6.25297V17.5489C58.8838 18.6208 58.6009 19.6262 58.1084 20.4971C56.9929 20.7797 56.1147 21.658 55.832 22.7735C54.9611 23.266 53.9558 23.5489 52.8838 23.5489H6.95801C5.88567 23.5488 4.87994 23.2664 4.00879 22.7735C3.72609 21.6581 2.84886 20.7797 1.7334 20.4971C1.24101 19.6263 0.958008 18.6207 0.958008 17.5489L0.958008 6.25297C0.958019 2.93933 3.64439 0.253063 6.95801 0.252968L52.8838 0.252968Z" fill="url(#paint1_linear_354_1474)" fill-opacity="0.85"/>
<path d="M52.8838 0.252968V-0.747032V0.252968ZM58.8838 6.25297H59.8838V6.25296L58.8838 6.25297ZM58.8838 17.5489H59.8838H58.8838ZM58.1084 20.4971L58.354 21.4665L58.7684 21.3615L58.9788 20.9894L58.1084 20.4971ZM55.832 22.7735L56.3243 23.6439L56.6964 23.4335L56.8014 23.0191L55.832 22.7735ZM52.8838 23.5489V22.5489V23.5489ZM6.95801 23.5489L6.95798 24.5489H6.95801V23.5489ZM4.00879 22.7735L3.03944 23.0191L3.14442 23.4334L3.51636 23.6438L4.00879 22.7735ZM1.7334 20.4971L0.862907 20.9893L1.07335 21.3615L1.48782 21.4665L1.7334 20.4971ZM0.958008 17.5489H1.95801H0.958008ZM0.958008 6.25297L-0.0419921 6.25296L-0.0419921 6.25297H0.958008ZM6.95801 0.252968V-0.747032L6.95798 -0.747032L6.95801 0.252968ZM52.8838 0.252968V1.25297C55.6452 1.25297 57.8838 3.49155 57.8838 6.25297L58.8838 6.25297L59.8838 6.25296C59.8838 2.38699 56.7498 -0.747032 52.8838 -0.747032V0.252968ZM58.8838 6.25297H57.8838V17.5489H58.8838H59.8838V6.25297H58.8838ZM58.8838 17.5489H57.8838C57.8838 18.4426 57.6484 19.279 57.2379 20.0049L58.1084 20.4971L58.9788 20.9894C59.5534 19.9733 59.8838 18.7991 59.8838 17.5489H58.8838ZM58.1084 20.4971L57.8628 19.5277C56.3915 19.9005 55.2354 21.0566 54.8627 22.5279L55.832 22.7735L56.8014 23.0191C56.9939 22.2594 57.5943 21.659 58.354 21.4665L58.1084 20.4971ZM55.832 22.7735L55.3398 21.903C54.6139 22.3135 53.7775 22.5489 52.8838 22.5489V23.5489V24.5489C54.134 24.5489 55.3082 24.2185 56.3243 23.6439L55.832 22.7735ZM52.8838 23.5489V22.5489H6.95801V23.5489V24.5489H52.8838V23.5489ZM6.95801 23.5489L6.95804 22.5489C6.06362 22.5488 5.22689 22.3137 4.50122 21.9031L4.00879 22.7735L3.51636 23.6438C4.53298 24.219 5.70772 24.5488 6.95798 24.5489L6.95801 23.5489ZM4.00879 22.7735L4.97814 22.5278C4.60542 21.0572 3.4508 19.9006 1.97898 19.5277L1.7334 20.4971L1.48782 21.4665C2.24692 21.6588 2.84677 22.2589 3.03944 23.0191L4.00879 22.7735ZM1.7334 20.4971L2.60389 20.0049C2.19348 19.2791 1.95801 18.4424 1.95801 17.5489H0.958008H-0.0419921C-0.0419921 18.799 0.288537 19.9734 0.862907 20.9893L1.7334 20.4971ZM0.958008 17.5489H1.95801L1.95801 6.25297H0.958008H-0.0419921L-0.0419921 17.5489H0.958008ZM0.958008 6.25297L1.95801 6.25297C1.95802 3.49164 4.19665 1.25305 6.95804 1.25297L6.95801 0.252968L6.95798 -0.747032C3.09212 -0.746922 -0.0419796 2.38702 -0.0419921 6.25296L0.958008 6.25297ZM6.95801 0.252968V1.25297L52.8838 1.25297V0.252968V-0.747032L6.95801 -0.747032V0.252968Z" fill="url(#paint2_linear_354_1474)" style="mix-blend-mode:overlay" mask="url(#path-2-inside-1_354_1474)"/>
<rect x="5.99512" y="21.0307" width="2.51852" height="5.03704" rx="1" fill="white"/>
<rect x="51.3286" y="21.0307" width="2.51852" height="5.03704" rx="1" fill="white"/>
<defs>
<linearGradient id="paint0_linear_354_1474" x1="4.07709" y1="7.387" x2="17.5414" y2="44.3004" gradientUnits="userSpaceOnUse">
<stop stop-color="white" stop-opacity="0.5"/>
<stop offset="0.352567" stop-color="white" stop-opacity="0"/>
<stop offset="0.646925" stop-color="white" stop-opacity="0"/>
<stop offset="1" stop-color="white" stop-opacity="0.54"/>
</linearGradient>
<linearGradient id="paint1_linear_354_1474" x1="0.958008" y1="11.901" x2="58.8839" y2="11.901" gradientUnits="userSpaceOnUse">
<stop stop-color="#C36EFF" stop-opacity="0.8"/>
<stop offset="0.528846" stop-color="#6A40FF" stop-opacity="0.66"/>
<stop offset="1" stop-color="#0AD7FF" stop-opacity="0.58"/>
</linearGradient>
<linearGradient id="paint2_linear_354_1474" x1="4.07709" y1="3.86882" x2="7.86663" y2="24.3668" gradientUnits="userSpaceOnUse">
<stop stop-color="white" stop-opacity="0.5"/>
<stop offset="0.352567" stop-color="white" stop-opacity="0"/>
<stop offset="0.646925" stop-color="white" stop-opacity="0"/>
<stop offset="1" stop-color="white" stop-opacity="0.54"/>
</linearGradient>
</defs>
</svg>
