<svg width="85" height="85" viewBox="0 0 85 85" fill="none" xmlns="http://www.w3.org/2000/svg">
<path fill-rule="evenodd" clip-rule="evenodd" d="M16.372 74.5552C16.4207 74.2532 16.3191 74.1896 16.063 74.3645C14.8029 75.2069 9.55928 78.7237 0.33615 84.9068C0.250788 84.9625 0.169491 84.9943 0.0922588 84.9982C0.0841291 85.0022 0.0759994 84.9982 0.0638049 84.9982C0.0190916 84.9863 -0.00936234 84.9426 0.0028322 84.8989C0.0028322 84.887 0.00689705 84.879 0.0150267 84.8711L7.96993 73.1008C8.12033 72.8823 8.06342 72.8068 7.80734 72.8743L4.16523 73.8201C3.77501 73.9234 3.70184 73.8121 3.94573 73.4982L14.62 59.6537C14.6241 59.6497 14.6281 59.6457 14.6322 59.6418C14.6769 59.598 14.7501 59.598 14.7948 59.6418C14.7989 59.6457 14.8029 59.6497 14.807 59.6537C17.7134 63.5996 21.2538 66.9217 25.4366 69.6159C25.6032 69.7232 25.6073 69.8384 25.461 69.9656L16.1484 77.762C15.8923 77.9727 15.7907 77.917 15.8476 77.5951L16.372 74.5552ZM16.7541 53.3632C16.7541 53.5023 16.8232 53.8321 16.815 53.9513C16.7825 54.3805 16.6524 54.4044 16.4289 54.0269C13.6119 49.2862 12.0104 44.1839 11.6242 38.72C11.169 32.2746 12.3437 25.9404 15.2663 20.2063C19.3108 12.2707 26.1276 5.94451 34.6272 2.68206C41.5943 0.00375821 48.8298 -0.552567 56.3253 1.00117C56.3375 1.00514 56.3457 1.00912 56.3538 1.01309C56.3904 1.03693 56.4026 1.08859 56.3782 1.12435C56.3741 1.1323 56.366 1.14025 56.3578 1.1482C56.1749 1.27536 55.9758 1.38662 55.7603 1.48199C42.6309 7.30751 31.5095 16.8485 24.1846 29.0399C19.7539 36.4152 16.9573 44.7958 16.7541 53.3632ZM82.6249 0.369343C82.885 0.381264 83.0883 0.436897 83.2346 0.540214C83.2997 0.583925 83.3362 0.647505 83.3444 0.723006C83.6167 3.57218 83.7265 5.90477 83.6777 7.7168C83.324 20.3772 79.0275 31.5474 70.7881 41.2234C70.3531 41.7321 70.2271 41.6685 70.4182 41.0287C71.1986 38.3782 71.6864 35.5251 71.8774 32.4732C72.0075 30.399 72.0238 28.6505 71.9221 27.22C71.6213 22.8409 69.9954 19.0777 67.0443 15.9226C62.947 11.8177 57.1668 9.91031 51.3906 10.5382C47.4518 10.9673 43.7934 12.1873 40.4196 14.2059C38.9806 15.0643 37.6392 16.014 36.3913 17.0472C36.3832 17.0551 36.3751 17.0551 36.3629 17.0511L36.31 17.0154C36.2613 16.9836 36.2572 16.9438 36.2978 16.9041C38.1677 15.0563 39.4481 13.8403 40.1432 13.2522C49.0818 5.65443 59.4349 1.2992 71.1945 0.182577C73.67 -0.0518744 76.6496 -0.0161107 78.9869 0.0474693C80.0925 0.0752855 81.3038 0.18655 82.6249 0.369343ZM29.1234 47.1523C29.0014 45.825 29.1884 44.4938 29.5786 43.0792C30.0339 41.5851 30.7046 39.9121 31.5989 38.2153C33.0053 35.5132 34.9321 32.819 37.2002 30.3592C38.8587 28.5551 40.6757 26.91 42.5455 25.5073C43.7772 24.5854 45.0291 23.7668 46.2648 23.0873C48.2891 21.9746 50.2525 21.2196 52.041 20.8779C52.8621 20.7984 53.549 20.7269 54.1913 20.7269C55.4961 20.6672 56.6952 20.9692 57.6545 21.5613C57.8903 21.7084 58.1139 21.8713 58.3171 22.0541C58.9309 22.5945 59.4024 23.2859 59.7195 24.1125C60.1382 25.249 60.2723 26.7034 60.0731 28.3525L60.0243 28.273C59.9268 29.6877 59.5569 31.1182 58.9919 32.6044C57.996 35.2151 56.4148 37.965 54.3945 40.5996C53.6629 41.5572 52.8662 42.499 52.0369 43.4011C50.5858 44.9747 49.0208 46.429 47.3989 47.7086C45.2202 49.4253 42.9723 50.8002 40.8261 51.73C38.5132 52.7274 36.3629 53.1884 34.5459 53.0771C33.1069 53.0096 31.8794 52.5486 30.9607 51.7419C30.6436 51.4598 30.3632 51.1379 30.1233 50.7803C29.477 49.8226 29.1275 48.6384 29.0665 47.2556L29.1234 47.1523ZM44.834 30.7924C48.0452 30.7924 50.6508 33.3395 50.6508 36.4788C50.6508 39.618 48.0452 42.1652 44.834 42.1652C41.6187 42.1652 39.0172 39.618 39.0172 36.4788C39.0172 33.3395 41.6187 30.7924 44.834 30.7924ZM81.6656 28.3088C82.1168 27.3272 82.5924 26.3139 83.0883 25.2728C83.2062 25.0304 83.2956 25.0384 83.3647 25.2967C83.6167 26.2623 83.8443 27.1603 84.0435 27.9909C86.4499 37.957 84.2508 48.5868 78.1779 56.8959C67.8288 71.0583 48.655 75.9341 32.5419 68.5271C32.3468 68.4357 32.1761 68.3204 32.0338 68.1853C32.0135 68.1694 32.0054 68.1456 32.0054 68.1178C32.0054 68.074 32.0379 68.0343 32.0826 68.0303C32.42 67.9826 32.7045 67.931 32.9362 67.8754C54.8498 62.5148 72.3693 48.4437 81.6656 28.3088Z" fill="url(#paint0_linear_450_2698)"/>
<defs>
<linearGradient id="paint0_linear_450_2698" x1="14.5672" y1="65.9719" x2="59.1589" y2="27.2757" gradientUnits="userSpaceOnUse">
<stop stop-color="#FF876C"/>
<stop offset="1" stop-color="#5E8CFF"/>
</linearGradient>
</defs>
</svg>
